<?xml version="1.0" standalone="no"?>
<!DOCTYPE svg PUBLIC "-//W3C//DTD SVG 1.1//EN" "http://www.w3.org/Graphics/SVG/1.1/DTD/svg11.dtd" >
<svg>
<metadata>
Created by FontForge 20110222 at Fri Sep 13 21:16:57 2013
 By Orthosie Webhosting
Copyright (c) 2011 Fontstage (info@fontstage.com), with Reserved Font Name "Chango"
</metadata>
<defs>
<font id="ChangoRegular" horiz-adv-x="826" >
  <font-face 
    font-family="ChangoRegular"
    font-weight="400"
    font-stretch="normal"
    units-per-em="1000"
    panose-1="2 0 0 0 0 0 0 0 0 0"
    ascent="800"
    descent="-200"
    x-height="509"
    cap-height="700"
    bbox="-119 -216 1860 995"
    underline-thickness="50"
    underline-position="-50"
    unicode-range="U+0020-FB06"
  />
<missing-glyph horiz-adv-x="679" 
d="M108 720h372q58 0 77 -20.5t23 -67.5q7 -83 7 -280t-10 -284q-2 -24 -27 -43.5t-66 -20.5q-110 -5 -181.5 -5t-197.5 5q-33 1 -52 20t-22 43q-9 88 -9 283t5 261t20 87.5t61 21.5zM108 501q19 -21 34 -21t38.5 20t51.5 20q57 0 57 -43q0 -19 -18.5 -33t-41 -21t-41 -24
t-18.5 -42q0 -8 4 -40t35 -35q27 -3 56.5 -3t46 2.5t22.5 6t9 6.5t4.5 10.5t1.5 10.5v25q0 39 85 72q33 12 59.5 36.5t26.5 57.5q0 69 -52 102t-134 33q-159 0 -229 -70q-16 -16 -16 -32.5t19 -37.5zM332.5 229.5q-21.5 24.5 -66 24.5t-71 -25.5t-26.5 -61.5t27.5 -58
t66.5 -22t65 26t26 59t-21.5 57.5z" />
    <glyph glyph-name=".notdef" horiz-adv-x="679" 
d="M108 720h372q58 0 77 -20.5t23 -67.5q7 -83 7 -280t-10 -284q-2 -24 -27 -43.5t-66 -20.5q-110 -5 -181.5 -5t-197.5 5q-33 1 -52 20t-22 43q-9 88 -9 283t5 261t20 87.5t61 21.5zM108 501q19 -21 34 -21t38.5 20t51.5 20q57 0 57 -43q0 -19 -18.5 -33t-41 -21t-41 -24
t-18.5 -42q0 -8 4 -40t35 -35q27 -3 56.5 -3t46 2.5t22.5 6t9 6.5t4.5 10.5t1.5 10.5v25q0 39 85 72q33 12 59.5 36.5t26.5 57.5q0 69 -52 102t-134 33q-159 0 -229 -70q-16 -16 -16 -32.5t19 -37.5zM332.5 229.5q-21.5 24.5 -66 24.5t-71 -25.5t-26.5 -61.5t27.5 -58
t66.5 -22t65 26t26 59t-21.5 57.5z" />
    <glyph glyph-name=".null" horiz-adv-x="0" 
 />
    <glyph glyph-name="nonmarkingreturn" horiz-adv-x="333" 
 />
    <glyph glyph-name="space" unicode=" " horiz-adv-x="400" 
 />
    <glyph glyph-name="exclam" unicode="!" horiz-adv-x="496" 
d="M251 723q52 0 89 -5.5t55 -12.5t28 -19.5t11.5 -21t1.5 -22.5q0 -148 -82 -357q-10 -27 -35 -34t-65 -7h-11q-86 0 -101 41q-82 209 -82 357q0 13 2 22.5t13 21.5t30 19t56.5 12.5t89.5 5.5zM157.5 170q35.5 34 95.5 34t89 -33t29 -76.5t-35 -79t-87.5 -35.5t-89.5 29.5
t-37 78t35.5 82.5z" />
    <glyph glyph-name="quotedbl" unicode="&#x22;" horiz-adv-x="601" 
d="M108.5 728q21.5 9 59 9t58.5 -4.5t30 -12.5q13 -14 13 -33q0 -94 -40 -219q-8 -25 -51 -25h-8q-42 0 -49 25q-41 128 -41 221q0 14 3.5 22t25 17zM360.5 728q21.5 9 59 9t58.5 -4.5t30 -12.5q13 -14 13 -33q0 -94 -40 -219q-8 -25 -51 -25h-8q-42 0 -49 25
q-41 128 -41 221q0 14 3.5 22t25 17z" />
    <glyph glyph-name="numbersign" unicode="#" horiz-adv-x="877" 
d="M470 72l11 84h-138l-11 -86q-4 -35 -19 -52.5t-57 -18.5h-19q-41 0 -50 15.5t-9 30.5t2 27l11 84h-65q-23 0 -34 9.5t-12 40.5v41q0 31 12.5 40.5t35.5 9.5h81l13 105h-64q-23 0 -34 9.5t-12 40.5v41q0 31 12.5 40.5t35.5 9.5h81l11 86q4 35 19 52.5t57 18.5h20
q41 0 52 -19q6 -11 6 -25.5t-3 -28.5l-11 -84h139l11 86q4 35 19 52.5t57 18.5h20q41 0 52 -19q6 -11 6 -25.5t-3 -28.5l-11 -84h69q23 0 34 -9.5t12 -40.5v-41q0 -31 -12.5 -40.5t-35.5 -9.5h-85l-13 -105h68q23 0 34 -9.5t12 -40.5v-41q0 -31 -12.5 -40.5t-35.5 -9.5h-84
l-11 -86q-4 -35 -19 -52.5t-57 -18.5h-19q-41 0 -50 15.5t-9 30.5t2 27zM374 402l-13 -105h138l13 105h-138z" />
    <glyph glyph-name="dollar" unicode="$" horiz-adv-x="809" 
d="M314 -50l-3 50q-139 11 -214 57q-33 19 -45.5 33.5t-12.5 35.5t2 35t7 31t16.5 28t25 10.5t73 -21.5t93.5 -21q52 0 52 38q0 23 -25 42.5t-61 37.5t-72 41.5t-61 64.5t-25 96q0 76 67.5 125t180.5 63q0 24 2 48t14 37t42 13h58q30 0 42 -13q16 -17 16 -82
q111 -8 175 -35.5t64 -67t-18.5 -66.5t-37.5 -27q-7 0 -46.5 14t-71.5 14q-62 0 -62 -46q0 -22 30 -41t72.5 -36t85 -38.5t72.5 -59.5t30 -87q0 -94 -82.5 -147.5t-210.5 -70.5q-2 -46 -3 -65q-2 -44 -55 -44h-58q-30 0 -42 13t-14 41z" />
    <glyph glyph-name="percent" unicode="%" horiz-adv-x="1511" 
d="M376 595q-36 0 -36 -88t36 -88t36 88t-36 88zM935 662q23 26 36 32t39 6h151q24 0 31 -18q2 -5 2 -15t-25 -36.5t-234.5 -251t-325.5 -344.5q-22 -26 -35 -32t-40 -6h-151q-24 0 -31 19q-2 4 -2 14t14 25q182 188 571 607zM188 654.5q68 60.5 188.5 60.5t188 -60.5
t67.5 -145.5q0 -83 -54 -143q-28 -31 -79.5 -49.5t-121.5 -18.5t-122 18.5t-81 49.5q-54 59 -54 143.5t68 145zM1175 286q-36 0 -36 -88t36 -88t36 88t-36 88zM987 345.5q68 60.5 188.5 60.5t188 -60.5t67.5 -145.5q0 -83 -54 -143q-28 -31 -79.5 -49.5t-121.5 -18.5
t-122 18.5t-80 49.5q-55 59 -55 143.5t68 145z" />
    <glyph glyph-name="ampersand" unicode="&#x26;" horiz-adv-x="1022" 
d="M570 263q0 17 -41 17t-62 -23t-21 -52t25.5 -50.5t65.5 -21.5q13 0 24.5 4t11.5 23q-3 78 -3 103zM949 104l3 -59q0 -46 -38 -58q-30 -10 -75 -10q-129 0 -191 54q-127 -54 -293 -54q-120 0 -204 45q-43 23 -67 64t-24 97q0 121 102 173q-74 49 -74 150q0 56 31.5 99
t85.5 69q107 50 245.5 50t237.5 -33q50 -16 50 -75q0 -33 -13.5 -52t-43 -19t-68 10.5t-70.5 10.5t-62.5 -18.5t-30.5 -58t20 -39.5q2 0 19.5 3t54 3t122.5 -13t118 -13t70.5 12t51.5 12q41 0 41 -79q0 -47 -37 -67q-26 -14 -66 -25v-93q0 -33 17.5 -44t47.5 -11
q40 0 40 -31z" />
    <glyph glyph-name="quotesingle" unicode="'" horiz-adv-x="349" 
d="M108.5 728q21.5 9 59 9t58.5 -4.5t30 -12.5q13 -14 13 -33q0 -94 -40 -219q-8 -25 -51 -25h-8q-42 0 -49 25q-41 128 -41 221q0 14 3.5 22t25 17z" />
    <glyph glyph-name="parenleft" unicode="(" horiz-adv-x="530" 
d="M355 588.5q-36 -115.5 -36 -245t36 -244.5t100 -197q15 -25 15 -44q0 -33 -56 -33h-74q-60 0 -125 71.5t-110 194t-45 236.5t27 211.5t67.5 167.5t90.5 113.5t95 43.5h74q56 0 56 -33q0 -19 -15 -44q-64 -82 -100 -197.5z" />
    <glyph glyph-name="parenright" unicode=")" horiz-adv-x="530" 
d="M175 99q36 115 36 244.5t-36 245t-100 197.5q-15 25 -15 44q0 33 56 33h74q45 0 95 -43.5t90.5 -113.5t67.5 -167.5t27 -211.5t-45 -236.5t-110 -194t-125 -71.5h-74q-56 0 -56 33q0 19 15 44q64 82 100 197z" />
    <glyph glyph-name="asterisk" unicode="*" horiz-adv-x="626" 
d="M104 481q-24 8 -24 31t9 50.5t20.5 42t20.5 13.5q53 -5 131 -60q-19 68 -19 125q0 11 2.5 18t19 14.5t44.5 7.5t43.5 -3.5t22.5 -11.5q9 -10 9 -26q0 -56 -19 -124q51 36 112 56q9 1 18.5 2.5t21.5 -13t21 -41.5t9 -50.5t-24 -30.5q-51 -17 -128 -20q59 -45 89 -89
q7 -10 7 -20q0 -25 -41 -55q-32 -23 -56 -23q-11 0 -23 15q-35 48 -58 107q-22 -61 -56 -107q-12 -15 -20.5 -15t-21.5 2.5t-38.5 21t-35 34.5t-7 23.5t9.5 16.5h-1q32 44 89 89q-66 2 -127 20z" />
    <glyph glyph-name="plus" unicode="+" horiz-adv-x="801" 
d="M80 349v7q0 46 18.5 60.5t54.5 14.5h162v167q0 35 14 52.5t60 18.5h22q46 0 60.5 -18.5t14.5 -54.5v-165h164q35 0 52.5 -14t18.5 -61v-6q0 -48 -22 -62q-17 -11 -51 -11h-162v-168q0 -35 -14 -52.5t-61 -18.5h-21q-46 0 -60.5 18.5t-14.5 54.5v166h-164q-54 0 -65 32
q-5 15 -6 40z" />
    <glyph glyph-name="comma" unicode="," horiz-adv-x="369" 
d="M119 1q-59 23 -59 102q0 50 38.5 79t89.5 29t86 -28.5t35 -81.5q0 -89 -68.5 -157.5t-158.5 -68.5q-10 0 -21.5 16t-11.5 27.5t7 15.5q52 27 63 67z" />
    <glyph glyph-name="hyphen" unicode="-" horiz-adv-x="506" 
d="M425 279v-41q0 -31 -12.5 -40.5t-35.5 -9.5h-251q-23 0 -34 9.5t-12 40.5v41q0 31 12.5 40.5t35.5 9.5h251q23 0 34 -9.5t12 -40.5z" />
    <glyph glyph-name="period" unicode="." horiz-adv-x="369" 
d="M95.5 178q35.5 34 95.5 34t89 -33t29 -76.5t-35 -79t-87.5 -35.5t-89.5 29.5t-37 78t35.5 82.5z" />
    <glyph glyph-name="slash" unicode="/" horiz-adv-x="718" 
d="M117 -178q-42 0 -42 30q0 10 5 24q26 94 86 264q224 628 239 663t31.5 48t46.5 13h118q42 0 42 -30q0 -10 -5 -24q-33 -116 -158 -467q-128 -369 -170 -467q-12 -28 -28.5 -41t-46.5 -13h-118z" />
    <glyph glyph-name="zero" unicode="0" horiz-adv-x="880" 
d="M379.5 228q21.5 -53 59 -53t59 53t21.5 123t-21.5 120t-59 50t-59 -49.5t-21.5 -120t21.5 -123.5zM440 -21q-96 0 -174 31.5t-126.5 84.5t-74 118.5t-25.5 136.5t25.5 137t74 119t126.5 85t174 32t174 -32t126.5 -85t74 -119t25.5 -137t-25.5 -136.5t-74 -118.5
t-126.5 -84.5t-174 -31.5z" />
    <glyph glyph-name="one" unicode="1" horiz-adv-x="604" 
d="M474 701q42 0 55.5 -21t16.5 -70q8 -115 8 -278.5t-10 -270.5q-3 -23 -20.5 -41t-46.5 -20q-57 -4 -132 -4t-142 4q-30 2 -48 20.5t-19 40.5q-8 137 -8 261.5t1 165.5l-45 3q-44 3 -44 56.5t9 71t45 24.5q199 41 380 58z" />
    <glyph glyph-name="two" unicode="2" horiz-adv-x="852" 
d="M81 36l-9 55q-2 9 -2 18q0 33 26 52q103 74 183.5 158t80.5 140q0 39 -25 63.5t-57 24.5q-73 0 -138 -58q-10 -10 -24 -7q-44 9 -44 97q0 30 13.5 47t45.5 33q127 62 290.5 62t243.5 -56.5t80 -145.5t-46.5 -155t-143.5 -144q-21 -16 -21 -30q0 -17 28 -17h4l217 9h2
q17 0 27 -21.5t10 -63t-14 -69t-56 -28.5q-148 -3 -291.5 -3t-229.5 2t-95.5 2.5t-24 3.5t-21 10.5t-9.5 20.5z" />
    <glyph glyph-name="three" unicode="3" horiz-adv-x="800" 
d="M109 184l126 -5q56 0 87 25q19 15 19 40q0 64 -77 64q-28 0 -64 -7t-43 -7q-43 0 -43 73q0 31 11 40t28 11t45 2.5t49 1.5q59 5 82 23t23 46t-20.5 43t-52.5 15q-63 0 -128 -56q-10 -8 -23.5 -8t-25.5 17q-18 23 -18 66t13.5 60t52.5 36.5t117 38t147.5 18.5t115.5 -8.5
t91 -28.5t72.5 -58t27.5 -89.5t-27 -91.5t-77 -54q67 -24 101 -72t34 -107q0 -114 -89.5 -173.5t-223.5 -59.5q-242 0 -336 31q-45 15 -51 51q-2 12 -2 37t2 37q5 49 57 49z" />
    <glyph glyph-name="four" unicode="4" horiz-adv-x="904" 
d="M810 145l-23 -1q-1 -34 -5 -82q-3 -23 -20.5 -41t-46.5 -20q-57 -4 -132 -4t-142 4q-29 2 -46.5 20t-21 48t-5.5 75h-219q-51 2 -74.5 13.5t-23.5 44.5l-1 47q0 40 20 66q122 163 326 372q17 13 48 13h268q42 0 55.5 -21t17.5 -79.5t4 -256.5v-40h21q21 0 32.5 -14.5
t11.5 -31.5v-58q0 -52 -44 -54zM247 321q0 -18 19 -18h100v168q-20 -22 -39.5 -45t-40 -47t-30 -36t-9.5 -22z" />
    <glyph glyph-name="five" unicode="5" horiz-adv-x="768" 
d="M657 626q0 -92 -46 -92l-217 3q-25 0 -28 -15q-6 -24 -6 -36q0 -24 20 -24q13 1 38 1q140 0 215 -66.5t75 -164.5t-83 -175.5t-224 -77.5q-211 0 -293 31q-39 14 -45 50q-2 12 -2 32.5t6 56.5q4 52 34 52q14 0 52.5 -8.5t60.5 -8.5q101 0 101 77q0 28 -23 48t-65 20
q-1 0 -73 -6q-31 0 -44 12.5t-13 54.5t20 251q3 31 19 46t51 15l266 2q91 0 132 -1.5t54 -11.5q18 -14 18 -65z" />
    <glyph glyph-name="six" unicode="6" horiz-adv-x="855" 
d="M805 233q0 -121 -101 -187.5t-243 -66.5q-207 0 -317 99q-38 34 -61 88t-23 118t19 122t60.5 112t101 95.5t147.5 66t194 24.5q36 0 84 -5q33 -4 52 -34.5t19 -66.5t-16.5 -63.5t-49.5 -27.5q-31 3 -60 3q-66 0 -104 -21.5t-58 -74.5q54 21 111 21q105 0 175 -53.5
t70 -148.5zM482.5 275.5q-13.5 24.5 -39 24.5t-39.5 -26.5t-14 -65.5t15 -61t36.5 -22t38 24.5t16.5 63t-13.5 63z" />
    <glyph glyph-name="seven" unicode="7" horiz-adv-x="788" 
d="M312 704l353 -2q37 0 51 -9q22 -14 22 -85q0 -36 -12.5 -61.5t-63 -127.5t-70.5 -141q-62 -125 -132 -243q-14 -23 -26.5 -31t-40.5 -8q-211 0 -284 6q-49 4 -49 38q0 19 16 48q87 155 151.5 261.5t79.5 132.5t15 34q0 21 -23 21l-193 -4q-21 0 -31 18.5t-10 45t3 55
t16 38.5t71.5 12t156.5 2z" />
    <glyph glyph-name="eight" unicode="8" horiz-adv-x="809" 
d="M40 210q0 127 125 182q-87 56 -87 124.5t50 115.5q93 90 281 90q178 0 268 -78q46 -40 46 -94q0 -87 -84 -138q130 -67 130 -196q0 -73 -57.5 -128.5t-144 -82t-180.5 -26.5t-170 24t-126.5 77.5t-50.5 129.5zM461 205q0 43 -86 86q-32 -29 -32 -65.5t21 -51.5t45.5 -15
t38 14t13.5 32zM347 554q0 -40 74 -67q28 25 28 61q0 21 -13 35t-36.5 14t-38 -13t-14.5 -30z" />
    <glyph glyph-name="nine" unicode="9" horiz-adv-x="843" 
d="M181 148l46 -1q66 0 112 27.5t72 96.5q-62 -28 -136 -28q-99 0 -162 51.5t-63 142.5t50 151q95 114 301 114q200 0 303 -100q36 -35 57.5 -89t21.5 -128t-28.5 -143.5t-88.5 -129t-166 -96.5t-249 -42h-14q-26 0 -61.5 2.5t-55 34.5t-19.5 71.5t21.5 52.5t58.5 13z
M359 408q15 -26 40 -25.5t38 25t13 63.5t-15.5 62.5t-37 23.5t-37.5 -23.5t-16 -61.5t15 -64z" />
    <glyph glyph-name="colon" unicode=":" horiz-adv-x="369" 
d="M95.5 178q35.5 34 95.5 34t89 -33t29 -76.5t-35 -79t-87.5 -35.5t-89.5 29.5t-37 78t35.5 82.5zM95.5 629q35.5 34 95.5 34t89 -33t29 -76.5t-35 -79t-87.5 -35.5t-89.5 29.5t-37 78t35.5 82.5z" />
    <glyph glyph-name="semicolon" unicode=";" horiz-adv-x="369" 
d="M95.5 629q35.5 34 95.5 34t89 -33t29 -76.5t-35 -79t-87.5 -35.5t-89.5 29.5t-37 78t35.5 82.5zM119 1q-59 23 -59 102q0 50 38.5 79t89.5 29t86 -28.5t35 -81.5q0 -89 -68.5 -157.5t-158.5 -68.5q-10 0 -21.5 16t-11.5 27.5t7 15.5q52 27 63 67z" />
    <glyph glyph-name="less" unicode="&#x3c;" horiz-adv-x="757" 
d="M80 376q0 41 25 53l427 204q10 5 30 5t40 -17.5t20 -46.5v-37q0 -42 -38 -61l-259 -122q44 -22 66 -32l82 -39q18 -9 55 -27t55 -27q39 -20 39 -58v-37q0 -29 -20 -46.5t-40 -17.5t-30 5l-427 205q-25 12 -25 52v44z" />
    <glyph glyph-name="equal" unicode="=" horiz-adv-x="751" 
d="M696 512v-21q0 -46 -18.5 -60.5t-54.5 -14.5h-497q-35 0 -52.5 14t-18.5 60v22q0 46 18.5 60.5t54.5 14.5h497q35 0 52.5 -14t18.5 -61zM696 219v-21q0 -46 -18.5 -60.5t-54.5 -14.5h-497q-35 0 -52.5 14t-18.5 60v22q0 46 18.5 60.5t54.5 14.5h497q35 0 52.5 -14
t18.5 -61z" />
    <glyph glyph-name="greater" unicode="&#x3e;" horiz-adv-x="702" 
d="M622 376v-44q0 -40 -25 -52l-427 -205q-10 -5 -30 -5t-40 17.5t-20 46.5v37q0 38 39 58q18 9 55 27t55 27l82 39q22 10 66 32l-259 122q-38 19 -38 61v37q0 29 20 46.5t40 17.5t30 -5l427 -204q25 -12 25 -53z" />
    <glyph glyph-name="question" unicode="?" horiz-adv-x="679" 
d="M135 285l-6 58q0 33 25 56t55 33t55 28.5t25 45t-19.5 41.5t-48.5 15q-46 0 -86 -34q-25 -20 -44 -20t-45 29t-26 51t21 43q94 94 308 94q110 0 180 -44.5t70 -137.5q0 -36 -23.5 -64t-57 -45.5t-67.5 -33.5q-81 -36 -81 -80q0 -3 0.5 -16t0 -17t-2.5 -14t-6 -14
q-24 -21 -109 -21q-25 0 -69 4.5t-49 42.5zM163.5 170q35.5 34 95.5 34t89 -33t29 -76.5t-35 -79t-87.5 -35.5t-89.5 29.5t-37 78t35.5 82.5z" />
    <glyph glyph-name="at" unicode="@" horiz-adv-x="1524" 
d="M769 353q-11 14 -29 14t-29 -25.5t-11 -67t10.5 -67.5t27.5 -26t29.5 14t12.5 45v78q0 21 -11 35zM911 500l115 -1q26 0 46 -13t20 -36v-270q0 -34 27 -34q33 0 56.5 57.5t23.5 135.5q0 139 -116 218t-302 79q-211 0 -333 -97.5t-122 -277.5q0 -175 119 -259
q63 -45 159.5 -45t163.5 54q14 12 32.5 12t46.5 -27.5t28 -49.5t-40 -52.5t-119.5 -54.5t-169.5 -24q-239 0 -357.5 116t-118.5 324q0 148 95 261t255.5 171t359.5 58q296 0 478 -91q94 -47 145 -128.5t51 -193.5q0 -305 -430 -305q-86 0 -148 30t-79 92q-13 -41 -51 -71
q-68 -52 -147 -52t-135 57t-56 179t65 185.5t159.5 63.5t137.5 -73q3 57 57 61q18 1 84 1z" />
    <glyph glyph-name="A" unicode="A" horiz-adv-x="1084" 
d="M702 653l327 -553q20 -33 20 -55.5t-18 -33.5t-42 -11h-322q-49 0 -63 18q-4 6 -11 21l-29 62q-13 29 -61 33h-189q-21 0 -32 -4t-18 -18l-39 -81q-10 -18 -22 -24.5t-35 -6.5h-90q-39 0 -42 28q-1 4 -1 8q0 23 15 44l313 552q45 78 146 78h80q80 0 113 -57zM378 397
l-46 -91q-4 -9 -4 -16q0 -26 25 -26h91q21 0 29 10.5t8 18.5t-3 16l-38 86q-12 26 -31 26t-31 -24z" />
    <glyph glyph-name="B" unicode="B" horiz-adv-x="974" 
d="M464 290l-1 -130q0 -9 6 -15.5t16 -6.5q61 0 100.5 24t39.5 75.5t-41 71.5q-33 16 -72 16q-10 0 -20 -1q-28 -2 -28 -34zM463 565l1 -82q0 -19 23 -19q101 0 101 57q0 66 -90 66h-11q-24 0 -24 -22zM136 699q124 4 310 4t257.5 -3.5t126.5 -55.5t55 -120q0 -83 -72 -122
q-7 -4 -7 -9.5t7 -7.5q52 -14 87.5 -60t35.5 -109q0 -79 -61 -143t-187 -69.5t-182 -5.5t-374 3q-29 0 -47 18.5t-21 42.5q-8 88 -8 256.5t7 287.5q3 49 17 70.5t56 22.5z" />
    <glyph glyph-name="C" unicode="C" horiz-adv-x="822" 
d="M413 -20q-180 0 -284.5 91.5t-104.5 258.5q0 102 33.5 179t94.5 123q121 91 319 91q128 0 256 -35q49 -16 49 -79q0 -86 -54 -86q-9 0 -59 8t-70 8q-71 0 -109.5 -49.5t-38.5 -118t36 -120.5t98 -54q42 -2 149 -2q52 0 57 -49q3 -18 3 -36.5t-3 -37.5q-6 -36 -56 -52.5
t-144 -28t-172 -11.5z" />
    <glyph glyph-name="D" unicode="D" horiz-adv-x="899" 
d="M520 2q-67 -6 -192 -6t-170.5 3.5t-68.5 16.5t-25 41q-6 108 -6 246.5t4 293.5q2 96 89 102q61 4 187 4t197.5 -3.5t138 -33t106.5 -76.5q83 -97 83 -225q0 -135 -87 -241q-42 -51 -108.5 -84t-147.5 -38zM475 484v-242q0 -8 6 -15t16 -7q64 0 98.5 44t34.5 104
t-31.5 104.5t-84.5 44.5q-13 0 -20 -1q-19 -5 -19 -32z" />
    <glyph glyph-name="E" unicode="E" horiz-adv-x="844" 
d="M86.5 18.5q-19.5 18.5 -25 61t-5.5 255t7 277.5q8 84 71 86q72 2 597 2q59 0 59 -75q0 -59 -52 -59h-220q-21 0 -33.5 -14t-12.5 -36v-72q0 -30 27 -30h182q16 0 24.5 -3t15.5 -17.5t7 -47.5t-11.5 -44t-37.5 -11h-163q-25 0 -34.5 -12.5t-9.5 -38.5v-49q0 -43 41 -43
h249q18 0 32 -10.5t14 -46t-17 -63.5t-40 -28h-617q-28 0 -47.5 18.5z" />
    <glyph glyph-name="F" unicode="F" horiz-adv-x="813" 
d="M57 70l-1 543q8 83 71 87q45 1 599 1q60 0 60 -89q0 -45 -53 -45h-218q-21 0 -33.5 -14t-12.5 -37v-71q0 -31 26 -31h166q24 0 36 -11t12 -50.5t-11.5 -50.5t-37.5 -11h-149q-25 0 -34.5 -12t-9.5 -38v-172q0 -35 -15 -52t-39 -17h-284q-28 0 -48 18.5t-24 51.5z" />
    <glyph glyph-name="G" unicode="G" horiz-adv-x="881" 
d="M631 538q-90 0 -126.5 -46.5t-36.5 -147.5q0 -159 93 -159q19 0 25 1q-12 0 -19.5 42t-7.5 88t25 59.5t69.5 13.5t62 -0.5t40 -4t34.5 -10.5q28 -16 28 -48v-146q0 -78 -28 -124.5t-105 -54.5q-108 -11 -330 -11q-89 0 -152.5 28t-98.5 78q-64 93 -64 236.5t92 255.5
t245 120q105 6 152 6q171 0 243 -21q49 -14 49 -79q0 -87 -51 -87q-16 1 -64 6t-75 5z" />
    <glyph glyph-name="H" unicode="H" horiz-adv-x="1092" 
d="M1024 63q-2 -23 -19.5 -41t-47.5 -20q-82 -5 -135 -5t-125 5q-55 5 -58 48q-1 17 -2 44.5t-2.5 48.5t-11 33t-33.5 12h-75q-24 0 -33.5 -12t-11 -33t-2.5 -48.5t-2 -44.5q-3 -43 -58 -48q-72 -5 -131.5 -5t-141.5 5q-30 2 -47.5 20t-19.5 41q-8 88 -8 283t4 253.5t18 80
t56 21.5h244q35 0 59.5 -24t24.5 -62v-210q0 -36 31 -36h111q31 0 31 36v210q0 38 24.5 62t59.5 24h231q42 0 56 -21.5t18 -80t4 -253.5t-8 -283z" />
    <glyph glyph-name="I" unicode="I" horiz-adv-x="544" 
d="M138 700h268q42 0 55.5 -21t18 -86.5t4.5 -254t-8 -276.5q-3 -23 -20.5 -41t-46.5 -20q-57 -4 -132 -4t-142 4q-29 2 -46.5 20t-20.5 41q-8 88 -8 276.5t4.5 254t18 86.5t55.5 21z" />
    <glyph glyph-name="J" unicode="J" horiz-adv-x="659" 
d="M185 273l-3 308q0 45 1 58q1 32 15.5 46.5t56.5 14.5h268q42 0 56.5 -14.5t15.5 -46.5q2 -63 2 -151.5t-4 -214.5q-3 -195 -201 -257q-114 -36 -292 -36q-40 0 -53 24t-13 83.5t46 64.5q56 7 80.5 47.5t24.5 73.5z" />
    <glyph glyph-name="K" unicode="K" horiz-adv-x="1046" 
d="M656 17l-117 140q-18 22 -37 22q-23 0 -23 -38v-95q0 -18 -16 -29t-38 -13q-63 -4 -142.5 -4t-150.5 4q-30 2 -48 20.5t-20 41.5q-8 88 -8 273.5t4.5 251.5t18 87.5t55.5 21.5h268q33 0 55 -26t22 -64l1 -112q0 -21 11 -21q7 0 28 17l196 183q24 23 57.5 23.5t71.5 0.5
l77 -1q16 0 22 -15t-6 -27q-115 -115 -230 -213q-10 -9 -10 -18.5t11 -20.5l54 -54q41 -41 67.5 -67t62.5 -63q72 -74 110 -120q20 -24 20 -49q0 -9 -3 -19q-11 -34 -48 -34h-269q-31 0 -46 17z" />
    <glyph glyph-name="L" unicode="L" horiz-adv-x="858" 
d="M477 459l-1 -200q0 -44 13.5 -65.5t56.5 -21.5h253q46 -1 46 -70q0 -53 -13 -77t-53 -25q-141 -4 -279 -4t-352 2q-36 0 -58.5 17.5t-25.5 48.5q-8 87 -8 274.5t4.5 253t18.5 87t55 21.5h268q42 0 55.5 -22t16.5 -71t3 -148z" />
    <glyph glyph-name="M" unicode="M" horiz-adv-x="1118" 
d="M495 529.5q48 -72.5 67 -96.5t30.5 -24t20.5 13t66 100t94 132.5t59 46.5t57 1t82 -2t62.5 -24.5t18.5 -63.5q6 -105 6 -278.5t-9 -273.5q-2 -24 -18 -43t-44 -19q-61 -1 -135.5 -1t-118.5 3q-16 1 -28.5 12.5t-13.5 30.5l-6 165q-1 24 -10.5 27t-17.5 -13
q-53 -94 -132 -210q-19 -29 -50 -29t-51 29q-35 50 -119 212q-5 10 -11.5 12t-11.5 -5t-5 -23l-5 -165q-1 -19 -17 -30.5t-37 -12.5h-99q-27 1 -43.5 19t-19.5 41q-8 89 -8 276.5t5 275.5q3 42 19 65t57 23q210 0 227 -3t54 -49t85 -118.5z" />
    <glyph glyph-name="N" unicode="N" horiz-adv-x="965" 
d="M738 700h107q34 0 47.5 -11t14.5 -45q6 -152 6 -327t-7 -256q-2 -23 -17.5 -42t-40.5 -19h-167q-35 0 -77 25q-232 137 -292 167q-12 5 -19.5 -3.5t-7.5 -31.5v-111q0 -19 -14 -30q-21 -17 -108 -17q-24 0 -47 1.5t-37.5 20.5t-15.5 41q-3 120 -3 301.5t1 236.5t13 77.5
t46 22.5h110q34 0 70 -19q310 -161 362 -187q17 -8 27 -2t10 22v140q0 20 10.5 33t28.5 13z" />
    <glyph glyph-name="O" unicode="O" horiz-adv-x="1043" 
d="M543 -20q-121 0 -219 31.5t-159 84.5t-93 118.5t-32 136.5t32.5 136.5t93 118.5t158.5 85t215 32t207 -29t145 -79q112 -102 112 -242q0 -71 -30.5 -139t-87 -123.5t-145.5 -91t-197 -39.5zM707 451.5q-34 35.5 -103.5 35.5t-110.5 -37t-41 -90t43 -85t103.5 -32
t101.5 39t41 86.5t-34 83z" />
    <glyph glyph-name="P" unicode="P" horiz-adv-x="894" 
d="M473 129v-84q0 -43 -58.5 -46t-127 -3t-156.5 5q-29 2 -46.5 20t-20.5 41q-8 88 -8 276.5t6 274.5t87 87q93 2 199 2t229.5 -3t201.5 -93t78 -198t-69 -178t-202 -70h-78q-13 0 -24 -9t-11 -22zM472 491l2 -185q0 -19 21 -19q62 0 97.5 34.5t35.5 81.5t-33.5 81t-98.5 34
q-24 0 -24 -27z" />
    <glyph glyph-name="Q" unicode="Q" horiz-adv-x="1078" 
d="M756 23q-99 -43 -218.5 -43t-217.5 31.5t-159 84.5t-93 118.5t-32 136.5t32.5 136.5t93 118.5t158.5 85t215 32t207 -29t145 -79q112 -102 112 -242q0 -117 -76 -219l95 -9q23 -3 23 -30t-11.5 -64t-22 -55t-38.5 -18q-34 0 -213 45zM703 451.5q-34 35.5 -103.5 35.5
t-110.5 -37t-41 -90t43 -85t103.5 -32t101.5 39t41 86.5t-34 83z" />
    <glyph glyph-name="R" unicode="R" horiz-adv-x="915" 
d="M472 491l2 -185q0 -19 21 -19q62 0 97.5 34.5t35.5 81.5t-33.5 81t-98.5 34q-24 0 -24 -27zM734 192q19 -20 135 -151q7 -9 7 -16q0 -26 -23 -26q-53 -1 -106.5 -1t-106.5 1q-29 0 -53 23l-86 130q-5 6 -12 8q-16 6 -16 -13v-102q0 -43 -56.5 -46t-123.5 -3t-162 5
q-29 2 -46.5 20t-20.5 41q-8 88 -8 276.5t6 274.5t87 87q76 1 207 1t217 -2q124 -2 203 -92t79 -203q0 -66 -30.5 -122t-90.5 -90z" />
    <glyph glyph-name="S" unicode="S" horiz-adv-x="809" 
d="M209.5 -1q-74.5 19 -105 38t-40.5 27q-26 21 -26 58q0 29 7 55q13 49 47 49q11 -1 70.5 -23t93.5 -22q51 0 51 40q0 24 -25 44.5t-60.5 39.5t-71.5 43.5t-61 68t-25 101.5q0 96 94 150.5t243 54.5t236.5 -30.5t87.5 -84.5q0 -39 -18 -68.5t-38 -29.5q-7 0 -46.5 15.5
t-71.5 15.5q-63 0 -63 -49q0 -24 30 -44t72.5 -38.5t85.5 -41.5t73 -63t30 -97t-36.5 -104t-96.5 -73q-119 -51 -276 -51q-86 0 -160.5 19z" />
    <glyph glyph-name="T" unicode="T" horiz-adv-x="838" 
d="M629 61q-1 -22 -19 -40.5t-48 -20.5q-57 -4 -137 -4t-147 4q-30 2 -48 20.5t-19 40.5q-3 152 -3 259.5t1 157.5q0 38 -34 38h-90q-21 0 -34 10t-14.5 35t-1.5 52t1.5 46.5t16 30t31.5 10.5q130 2 352 2t318 -2q17 -1 31.5 -11t16 -29.5t1.5 -45.5t-1 -50q-3 -45 -49 -45
h-90q-34 0 -34 -35q3 -126 3 -228t-3 -195z" />
    <glyph glyph-name="U" unicode="U" horiz-adv-x="885" 
d="M448 595l-2 -91v-193q0 -42 26 -65t61 -23t60.5 23t25.5 65v298q0 47 12.5 69t54.5 22h92q32 0 44 -19q23 -34 23 -263q0 -75 -2 -115q-3 -81 -37.5 -144.5t-88.5 -101.5q-109 -77 -247 -77q-182 0 -301 85q-60 43 -94.5 114.5t-35.5 166.5q-1 47 -1 138.5t2.5 132t16 62
t54.5 21.5h267q40 0 53 -21q17 -27 17 -84z" />
    <glyph glyph-name="V" unicode="V" horiz-adv-x="963" 
d="M640 52q-18 -34 -62.5 -53t-96.5 -19t-95 18t-62 52q-150 277 -279 544q-15 32 -15 49q0 54 49 54l289 2q37 0 56.5 -13t34.5 -52l97 -248q6 -16 22 -16t24 16l131 284q13 27 28 30q6 1 21 1l115 -2q19 0 27 -18q3 -7 3 -17t-22.5 -55t-117 -250t-147.5 -307z" />
    <glyph glyph-name="W" unicode="W" horiz-adv-x="1423" 
d="M783 647l139 -2q31 0 48 -12t25 -40l61 -202q2 -8 7 -11t10 0t7 10l84 272q6 20 18.5 28t39.5 8h113q19 0 27 -18q4 -8 4 -18t-18.5 -56.5t-82.5 -243.5t-111 -299q-40 -84 -155 -84q-62 0 -117 28.5t-73.5 71t-49 124.5t-42.5 114q-52 -164 -93 -253q-19 -40 -69.5 -62
t-111.5 -22q-146 0 -194 108q-153 348 -208 511q-8 26 -8 44q0 56 53 56l286 3q37 0 55 -13t29 -50l70 -246q2 -9 7 -12q11 -6 17 11l67 204q15 48 62 49q62 2 104 2z" />
    <glyph glyph-name="X" unicode="X" horiz-adv-x="1028" 
d="M55 0q-20 0 -20 15q0 9 11 21l266 281l-243 283q-21 26 -21 42.5t5 26.5q15 30 53 30l378 1q29 0 43.5 -9t34.5 -37l53 -76q15 -23 24.5 -23t27.5 19l101 102q15 16 23 20t23 4h159q19 0 19 -13q0 -10 -11 -24l-235 -260q153 -205 223 -307q22 -31 22 -56q0 -36 -41 -37
q-92 -2 -177 -2t-144 0.5t-70 16.5l-115 143q-12 15 -20.5 15t-23.5 -15l-132 -138q-15 -16 -22.5 -19.5t-22.5 -3.5h-168z" />
    <glyph glyph-name="Y" unicode="Y" horiz-adv-x="955" 
d="M887 700q20 0 20 -20q0 -13 -11 -28l-224 -355q0 -81 -5 -236q-1 -22 -19 -40.5t-48 -20.5q-57 -4 -137 -4t-147 4q-30 2 -48 20.5t-19 40.5q-2 101 -2 210l-202 339q-15 23 -15 38q0 50 49 50l342 2q29 0 43.5 -9t34.5 -37l61 -131q16 -22 26.5 -22t25.5 18l102 160
q17 21 43 21h130z" />
    <glyph glyph-name="Z" unicode="Z" horiz-adv-x="844" 
d="M75 577v74q0 26 12.5 36.5t67 12t164.5 2.5t243 1h180q24 0 44.5 -13t20.5 -33v-82q0 -16 -5 -25l-6 -12q-1 -3 -7 -12l-8 -12q-93 -147 -215 -317q-12 -17 -8.5 -28.5t18.5 -11.5h191q21 0 32.5 -14.5t11.5 -31.5v-58q0 -52 -44 -54q-131 -3 -324 -3t-308 4
q-51 2 -74.5 13.5t-23.5 44.5v77q0 33 20 66q104 165 217 315q9 13 3 22t-23 9h-132q-20 0 -33.5 8.5t-13.5 21.5z" />
    <glyph glyph-name="bracketleft" unicode="[" horiz-adv-x="523" 
d="M64 -95l-4 438l4 438q0 37 22 59t51 24h93l14 -1l159 -1q60 0 60 -89q0 -45 -53 -45h-76q-43 0 -45 -35q-5 -188 -5 -340.5t5 -359.5q2 -35 45 -35h76q53 0 53 -45q0 -89 -60 -89l-159 -1l-14 -1h-93q-29 2 -51 24t-22 59z" />
    <glyph glyph-name="backslash" unicode="\" horiz-adv-x="718" 
d="M75 834q0 30 42 30h118q30 0 46.5 -13t31.5 -48t96.5 -264t142 -399t86.5 -264q5 -14 5 -24q0 -30 -42 -30h-118q-30 0 -46.5 13t-28.5 41q-42 98 -170 467q-125 351 -158 467q-5 14 -5 24z" />
    <glyph glyph-name="bracketright" unicode="]" horiz-adv-x="523" 
d="M459 781l4 -438l-4 -438q0 -37 -22 -59t-51 -24h-93l-14 1l-159 1q-60 0 -60 89q0 45 53 45h76q43 0 45 35q5 207 5 359.5t-5 340.5q-2 35 -45 35h-76q-53 0 -53 45q0 89 60 89l159 1l14 1h93q29 -2 51 -24t22 -59z" />
    <glyph glyph-name="asciicircum" unicode="^" horiz-adv-x="672" 
d="M317 625h38q34 0 45 -22l187 -391q4 -8 4 -14t-3.5 -14t-18.5 -8h-105q-13 0 -21 16l-107 221l-107 -221q-8 -16 -21 -16h-105q-15 0 -18.5 8t-3.5 14t4 14l187 391q11 22 45 22z" />
    <glyph glyph-name="underscore" unicode="_" horiz-adv-x="751" 
d="M641 -121q-44 -6 -253.5 -6t-253.5 6q-28 2 -41 14t-13 42v15q0 30 13 42t41 14q44 6 253.5 6t253.5 -6q16 -2 23 -14t7 -43v-15q0 -29 -7 -41t-23 -14z" />
    <glyph glyph-name="grave" unicode="`" horiz-adv-x="427" 
d="M104 704q0 19 32 19h120q30 0 47 -26l52 -98q6 -8 6 -14q0 -15 -24 -15h-69q-20 0 -36.5 13t-34.5 28t-38.5 32.5t-32.5 27.5q-22 18 -22 33z" />
    <glyph glyph-name="a" unicode="a" horiz-adv-x="803" 
d="M412 525q326 0 329 -212q2 -90 2 -165t-1 -101t-13.5 -37.5t-48.5 -11.5h-212q-32 0 -44 11.5t-13 34.5q0 1 -0.5 3.5t-0.5 4.5q-66 -68 -180 -68q-79 0 -134.5 39.5t-55.5 109t39.5 111t94 56.5t117 15t122.5 -12v4q0 50 -19.5 72t-63 22t-72.5 -7.5t-44 -15.5
q-41 -24 -57 -24t-28.5 15t-12.5 46.5t11.5 43.5t36.5 24q87 42 248 42zM365 116q44 0 45 17q2 33 2 87q0 21 -32 21t-52 -15.5t-20 -45.5t16.5 -47t40.5 -17z" />
    <glyph glyph-name="b" unicode="b" horiz-adv-x="812" 
d="M438 152q59 0 59 97.5t-59 97.5q-23 0 -41.5 -15.5t-18.5 -43.5v-77q0 -28 18.5 -43.5t41.5 -15.5zM62 47l-2 327q0 150 3 292q1 33 12.5 49t44.5 16h192q33 0 44.5 -15.5t15 -67.5t3.5 -184q0 -6 3 -9.5t9 1.5q70 66 169.5 66t162 -63.5t62.5 -206t-63 -204t-165 -61.5
q-150 0 -190 69q-1 -26 -19 -40t-40 -16t-80 -2l-106 2q-19 0 -37.5 13.5t-18.5 33.5z" />
    <glyph glyph-name="c" unicode="c" horiz-adv-x="676" 
d="M480 365q-47 0 -70 -31t-23 -77t27 -79t87 -33q19 0 56 10t52 10q35 0 37 -67q0 -29 -3.5 -54t-37.5 -36q-100 -31 -176.5 -31t-125 5.5t-98 22.5t-82 45t-53 75.5t-20.5 120t31.5 129.5t86.5 87q104 56 260 56q84 0 171 -27q37 -12 37 -80.5t-35 -68.5q-15 0 -54.5 11.5
t-66.5 11.5z" />
    <glyph glyph-name="d" unicode="d" 
d="M388 356q-59 0 -59 -97.5t59 -97.5q23 0 41.5 15.5t18.5 43.5v77q0 28 -18.5 43.5t-41.5 15.5zM718 2l-106 -2q-58 0 -78 2q-62 4 -62 70q-37 -42 -95.5 -68t-107.5 -26q-100 0 -164.5 66t-64.5 204q0 172 117 240q62 37 145 37t141 -37q19 -13 21 8.5t2 63.5v83
q0 20 1 40.5t12 34t45 13.5h192q33 0 44.5 -16t12.5 -49q3 -142 3 -290l-2 -327q0 -20 -18.5 -33.5t-37.5 -13.5z" />
    <glyph glyph-name="e" unicode="e" horiz-adv-x="742" 
d="M292.5 511q48.5 10 120 10t136.5 -17.5t97 -47.5q56 -55 56 -129q0 -116 -196 -116q-69 0 -143 13q3 -66 24.5 -93t76.5 -27t91 12t58 24.5t37.5 12.5t26.5 -14q17 -18 17 -49.5t-12.5 -43t-39.5 -22.5q-95 -40 -270 -40q-145 0 -238.5 69.5t-93.5 187.5q0 57 21 104.5
t56 79t81 54t94.5 32.5zM430 407q-61 0 -66 -99q48 -4 50 -4q66 0 66 44q0 59 -50 59z" />
    <glyph glyph-name="f" unicode="f" horiz-adv-x="606" 
d="M502 349h-93q-18 0 -18 -21v-262q0 -34 -12 -50t-47 -16h-195q-35 0 -46.5 15.5t-13.5 50.5q-4 85 -4 250q0 23 -4 28.5t-15 5.5q-34 0 -34 61q0 36 10 48t31 13q6 0 11 5t5 11v21q0 198 240 225q48 6 120.5 6t153.5 -27q35 -12 35 -80.5t-32 -68.5q-14 0 -50 11.5
t-61 11.5q-46 0 -69 -25.5t-23 -62.5q0 -27 22 -27h90q24 0 36 -11t12 -50.5t-11.5 -50.5t-37.5 -11z" />
    <glyph glyph-name="g" unicode="g" 
d="M388 356q-59 0 -59 -86.5t57 -86.5q25 0 43.5 13.5t18.5 38.5v69q0 24 -18.5 38t-41.5 14zM764 461l2 -307q0 -100 -1 -152t-30 -94t-79 -66q-98 -45 -261 -45t-267 44q-25 11 -36.5 23.5t-11.5 44t12.5 46.5t29.5 15t42 -12q77 -38 154 -38q35 0 63 7.5t49.5 30.5
t21.5 59l-1 53q0 10 -6 10q-3 0 -6 -3q-80 -77 -176 -77t-160.5 61t-64.5 193t76 199.5t186 67.5t163 -69q1 26 19 40t40 16t80 2l106 -2q19 0 37.5 -13.5t18.5 -33.5z" />
    <glyph glyph-name="h" unicode="h" horiz-adv-x="856" 
d="M67 47l-2 327q0 150 3 292q1 33 12.5 49t44.5 16h192q33 0 44.5 -15.5t14 -56t4.5 -216.5q78 79 187.5 79t172.5 -54t64.5 -149t1.5 -170t-1 -101t-13.5 -37.5t-48.5 -11.5l-192 -2q-32 0 -44.5 11.5t-12.5 34.5l1 244q0 30 -15 45t-37.5 15t-40.5 -15.5t-19 -43.5
l-6 -241q-1 -19 -18 -32t-41.5 -15t-54.5 -2l-140 2q-19 0 -37.5 13.5t-18.5 33.5z" />
    <glyph glyph-name="i" unicode="i" horiz-adv-x="443" 
d="M124 506h195q34 0 45.5 -15t15 -66.5t3.5 -188t-6 -192.5q-3 -17 -17 -30t-49.5 -15.5t-84.5 -2.5t-89 2.5t-54 15.5t-16 30q-7 65 -7 199.5t4 183.5t15 64t45 15zM232 742q66 0 99.5 -26.5t33.5 -72.5q0 -108 -144 -108q-58 0 -99 25t-41 75q0 107 151 107z" />
    <glyph glyph-name="j" unicode="j" horiz-adv-x="456" 
d="M396 252l-4 -193q0 -138 -111 -188q-99 -45 -278 -45q-32 0 -42.5 19.5t-10.5 67t37 51.5q92 11 92 98l-1 378q0 34 12 50t47 16h195q35 0 46.5 -15.5t13.5 -50.5q4 -85 4 -188zM245 742q66 0 99.5 -26.5t33.5 -72.5q0 -108 -144 -108q-58 0 -99 25t-41 75q0 107 151 107
z" />
    <glyph glyph-name="k" unicode="k" horiz-adv-x="851" 
d="M646 -1l-110 1q-38 0 -53 23l-93 148q-8 6 -9.5 4.5t-2 -34t-5.5 -98.5q-2 -16 -16 -29t-47.5 -15t-81 -2t-105.5 3q-24 1 -37.5 13.5t-15.5 29.5q-10 122 -10 326t8 297q3 34 13.5 49.5t43.5 15.5h192q33 0 44 -15.5t14 -49.5q6 -87 6 -292q0 -23 8 -23q5 0 11 6
l131 120q17 15 28 19.5t31 4.5h146q13 0 19 -17q2 -4 2 -12t-10 -18l-139 -122q-8 -8 0 -17q95 -112 202 -262q11 -15 11 -27q0 -25 -37 -25z" />
    <glyph glyph-name="l" unicode="l" horiz-adv-x="441" 
d="M125 731h192q33 0 44 -15.5t14 -49.5q6 -120 6 -331.5t-8 -291.5q-2 -16 -16 -29t-49.5 -15.5t-83.5 -2.5t-86 2q-65 5 -68 45q-10 87 -10 308.5t8 314.5q3 34 13.5 49.5t43.5 15.5z" />
    <glyph glyph-name="m" unicode="m" horiz-adv-x="1278" 
d="M916 43l1 244q0 30 -15 45t-37.5 15t-41 -15.5t-18.5 -43.5l1 -145q0 -69 -1 -95t-13.5 -37.5t-48.5 -11.5l-192 -2q-32 0 -44.5 11.5t-12.5 34.5l1 244q0 30 -15 45t-37.5 15t-41 -15.5t-18.5 -43.5v-61q0 -132 -6 -180q-3 -17 -17 -30t-49.5 -15.5t-70.5 -2.5t-119 4
q-24 1 -38 14t-16 30q-7 65 -7 199t4 183.5t15 64.5t45 15h195q34 0 45.5 -15t14.5 -51v-1q77 80 196 80q73 0 127 -28t80 -82q33 54 90.5 82t124.5 28q102 0 165 -54t64.5 -149t1.5 -170t-1 -101t-13.5 -37.5t-48.5 -11.5l-192 -2q-32 0 -44.5 11.5t-12.5 34.5z" />
    <glyph glyph-name="n" unicode="n" horiz-adv-x="856" 
d="M494 43l1 244q0 30 -15 45t-37.5 15t-41 -15.5t-18.5 -43.5v-61q0 -132 -6 -180q-3 -17 -17 -30t-49.5 -15.5t-70.5 -2.5t-119 4q-24 1 -38 14t-16 30q-7 65 -7 199t4 183.5t15 64.5t45 15h195q34 0 45.5 -15t14.5 -51v-1q77 80 187.5 80t173.5 -54t64.5 -149t1.5 -170
t-1 -101t-13.5 -37.5t-48.5 -11.5l-192 -2q-32 0 -44.5 11.5t-12.5 34.5z" />
    <glyph glyph-name="o" unicode="o" 
d="M413 138q59 0 59 112q0 51 -12 78.5t-47 27.5t-47 -27.5t-12 -78.5q0 -112 59 -112zM413 -22q-373 0 -373 272q0 129 95 200t278 71t278 -71t95 -200q0 -272 -373 -272z" />
    <glyph glyph-name="p" unicode="p" horiz-adv-x="812" 
d="M439 152q59 0 59 97.5t-59 97.5q-23 0 -41.5 -15.5t-18.5 -43.5v-77q0 -28 18.5 -43.5t41.5 -15.5zM119 509l184 -1q24 0 42 -14.5t19 -41.5q39 35 94.5 53t109.5 18q94 0 154 -66.5t60 -201.5q0 -77 -21 -131.5t-57 -83.5q-69 -53 -164.5 -53t-149.5 62q-7 7 -10.5 4
t-3.5 -9q0 -71 -6 -155q-2 -33 -13 -47.5t-45 -14.5h-192q-33 0 -44.5 16t-12.5 49q-2 95 -2 243l2 327q0 20 18.5 33.5t37.5 13.5z" />
    <glyph glyph-name="q" unicode="q" 
d="M388 356q-59 0 -59 -97.5t59 -97.5q23 0 41.5 15.5t18.5 43.5v77q0 28 -18.5 43.5t-41.5 15.5zM764 461l2 -327q0 -100 -3 -242q-1 -33 -12.5 -49t-44.5 -16h-192q-34 0 -45 13q-18 23 -18 204q0 6 -3 9.5t-9 -1.5q-79 -74 -174.5 -74t-160 64t-64.5 202q0 76 23 132.5
t63 86.5q76 58 180 58t157 -69q1 26 19 40t40 16t80 2l106 -2q19 0 37.5 -13.5t18.5 -33.5z" />
    <glyph glyph-name="r" unicode="r" horiz-adv-x="657" 
d="M124 509h195q34 0 47 -14.5t13 -43.5v-36q56 106 182 106q42 0 69 -27t27 -72t-24 -89.5t-67 -44.5q-20 0 -56 20.5t-58 20.5t-45.5 -16t-23.5 -53q0 -161 -6 -213q-3 -17 -17 -30t-49.5 -15.5t-70.5 -2.5t-119 4q-24 1 -38 14t-16 30q-7 65 -7 199t4 183.5t15 64.5
t45 15z" />
    <glyph glyph-name="s" unicode="s" horiz-adv-x="650" 
d="M280 131q0 28 -23.5 44t-57 24.5t-67.5 20t-57.5 40t-23.5 75.5q0 186 289 186q124 0 199 -42q24 -13 34 -24.5t10 -40.5t-11.5 -43.5t-23 -14.5t-50 22.5t-79.5 23.5q-33 0 -33 -33q0 -22 23 -35t56 -22.5t66 -23t56 -45t23 -79.5q0 -186 -289 -186q-141 0 -230 41
q-27 11 -39 22.5t-12 42t12.5 43.5t21 13t57.5 -22t99 -22t50 35z" />
    <glyph glyph-name="t" unicode="t" horiz-adv-x="661" 
d="M102 364q0 16 -22 16q-39 0 -46 26q-4 13 -4 40t7.5 38.5t29 17t39 19t72 59.5t76 60t53.5 14h50q35 0 47 -8.5t12 -26.5v-95q0 -21 18 -21h107q26 0 37.5 -11t11.5 -50.5t-12 -50.5t-36 -11h-104q-14 0 -18 -7t-4 -20v-120q2 -34 25.5 -57t66.5 -23q21 0 52 11.5
t42 11.5q27 0 27 -80q0 -58 -31 -70q-32 -11 -90 -18t-116 -7t-110.5 9.5t-95.5 33.5q-84 49 -84 187v133z" />
    <glyph glyph-name="u" unicode="u" horiz-adv-x="856" 
d="M362 465l-1 -244q0 -29 13 -44t33.5 -15t39 15.5t26.5 42.5v61q0 132 6 180q3 17 17 30t49.5 15.5t70.5 2.5t119 -4q24 -1 38 -14t16 -30q7 -65 7 -199.5t-4 -183.5t-15 -64t-45 -15h-195q-34 0 -45.5 15t-14.5 51v1q-103 -79 -209 -79t-160.5 52.5t-56 148.5t-1.5 171
t1 101t13.5 37.5t48.5 11.5l192 2q32 0 44.5 -11.5t12.5 -34.5z" />
    <glyph glyph-name="v" unicode="v" horiz-adv-x="767" 
d="M20 472q0 36 41 36l220 1q33 0 50 -9.5t30 -38.5l93 -174q4 -12 16 -12t18 12l96 199q8 18 22 21q4 1 14 1l105 1q14 0 19 -13q3 -6 3 -13.5t-5 -16.5q-136 -280 -223 -434q-17 -26 -54 -40t-81 -14q-98 0 -130.5 50.5t-68.5 115.5t-82 153t-72 135q-11 23 -11 40z" />
    <glyph glyph-name="w" unicode="w" horiz-adv-x="1140" 
d="M1099 508q20 0 20 -25q0 -8 -8.5 -32t-37 -106.5t-42.5 -120.5q-39 -106 -83 -192q-14 -26 -51 -40t-86 -14t-96.5 14.5t-63.5 45t-41 92.5t-30 72q-51 -138 -66.5 -167t-52.5 -43t-86 -14t-96.5 14.5t-61.5 41.5q-85 164 -172 398q-9 25 -9 42q0 35 39 35h210
q36 0 55 -9.5t25 -38.5l45 -174q3 -12 16.5 -12t17.5 12l84 177q18 46 61 46h108q34 0 51.5 -9.5t28.5 -38.5l69 -175q4 -12 17 -12t17 12l78 198q6 15 13.5 19.5t20.5 3.5h107z" />
    <glyph glyph-name="x" unicode="x" horiz-adv-x="806" 
d="M343 509l15 -1q3 0 6.5 -1.5t5.5 -2t5 -3.5t4.5 -3.5t5 -4.5t4.5 -5q9 -9 11 -13q64 -73 67 -76q101 105 103 105q5 3 6 3l9 1h173q12 0 16.5 -9t-4.5 -18l-207 -186q120 -130 205 -226q18 -21 18 -39q0 -28 -31.5 -29t-91.5 -1l-183 1q-34 0 -58 24l-87 93
q-109 -114 -111 -114q-5 -3 -6 -3l-9 -1h-172q-12 0 -15 6t-3 10.5t6 10.5l216 193l-201 217q-16 19 -16 31t4 19q11 22 39 22h276z" />
    <glyph glyph-name="y" unicode="y" horiz-adv-x="768" 
d="M132 -39q132 0 132 39q0 13 -16 39q-73 114 -216 393q-11 23 -11 36q0 41 41 41h220q32 0 48.5 -10t31.5 -38l93 -174q6 -12 17 -12t17 12l96 199q9 20 21 22q4 0 15 1h105q14 0 20 -13q2 -6 2 -13.5t-7.5 -22t-75.5 -159.5t-103.5 -213t-50 -93t-38.5 -59.5t-46 -52
t-55 -35.5q-58 -31 -148.5 -31t-119.5 15.5t-29 67.5q0 25 9.5 43t25.5 18h22z" />
    <glyph glyph-name="z" unicode="z" horiz-adv-x="679" 
d="M316 -4l-229 3q-17 0 -32 9t-15 24v59q0 25 15.5 41.5t56.5 59.5q90 94 137 152q9 11 6.5 20t-13.5 9h-148q-15 0 -23.5 10.5t-8.5 23.5v63q0 39 32 39q369 0 490 -1q17 0 32 -9t15 -24v-59q0 -23 -21.5 -48t-84 -90.5t-103.5 -114.5q-9 -11 -6.5 -20t13.5 -9h188
q15 0 23.5 -10.5t8.5 -23.5v-63q0 -39 -32 -39z" />
    <glyph glyph-name="braceleft" unicode="{" horiz-adv-x="539" 
d="M356 647l1 -150q0 -125 -76 -146q76 -31 76 -154l-1 -150q0 -34 20 -54t69 -27q26 -4 39.5 -22t13.5 -42q0 -73 -115 -73q-150 0 -219.5 61t-69.5 158q0 72 42 146q15 26 15 47.5t-19 38.5t-45 17t-36.5 16.5t-10.5 33.5t10.5 33.5t36.5 16.5t45 17t19 38t-14 47
t-28.5 63t-14.5 84q0 97 69.5 158t219.5 61q115 0 115 -73q0 -24 -13.5 -42t-39.5 -22q-49 -7 -69 -27t-20 -54z" />
    <glyph glyph-name="bar" unicode="|" horiz-adv-x="352" 
d="M60 343q0 385 6 467q2 28 14 41t42 13h108q30 0 42 -13t14 -41q6 -82 6 -467t-6 -467q-2 -28 -14 -41t-42 -13h-108q-30 0 -42 13t-14 41q-6 82 -6 467z" />
    <glyph glyph-name="braceright" unicode="}" horiz-adv-x="539" 
d="M183 47l-1 150q0 123 76 154q-76 21 -76 146l1 150q0 34 -20 54t-69 27q-26 4 -39.5 22t-13.5 42q0 73 115 73q150 0 219.5 -61t69.5 -158q0 -47 -14.5 -84t-28.5 -63t-14 -47t19 -38t45 -17t36.5 -16.5t10.5 -33.5t-10.5 -33.5t-36.5 -16.5t-45 -17t-19 -38.5t14 -47.5
q43 -78 43 -146q0 -97 -69.5 -158t-219.5 -61q-115 0 -115 73q0 24 13.5 42t39.5 22q49 7 69 27t20 54z" />
    <glyph glyph-name="asciitilde" unicode="~" horiz-adv-x="852" 
d="M540 217q-46 0 -129 48.5t-132 48.5q-81 0 -106 -75q-4 -12 -12 -12l-64 3q-17 5 -17 27q0 102 68.5 162.5t163.5 60.5q58 0 129 -48q27 -19 63.5 -34t68.5 -15q81 0 106 75q4 12 12 12l64 -3q17 -5 17 -27q0 -102 -68.5 -162.5t-163.5 -60.5z" />
    <glyph glyph-name="nbspace" unicode="&#xa0;" horiz-adv-x="400" 
 />
    <glyph glyph-name="exclamdown" unicode="&#xa1;" horiz-adv-x="496" 
d="M251 -20q-52 0 -89.5 5.5t-56.5 12.5t-30 19t-13 21.5t-2 22.5q0 148 82 357q15 41 101 41h11q26 0 41.5 -1.5t33.5 -11t25 -28.5q82 -209 82 -357q0 -14 -1.5 -22.5t-11.5 -21t-28 -19.5t-55 -12.5t-89 -5.5zM342 532q-29 -33 -89 -33t-95.5 34t-35.5 82.5t37 78
t89.5 29.5t87.5 -35.5t35 -79t-29 -76.5z" />
    <glyph glyph-name="cent" unicode="&#xa2;" horiz-adv-x="676" 
d="M467 457q-47 0 -69.5 -29.5t-22.5 -73t27 -74t87 -30.5q19 0 56 9t52 9q35 0 37 -62q0 -28 -3.5 -51t-37.5 -33q-79 -24 -163 -29q-1 -16 -2 -42t-13 -39t-42 -13h-58q-30 0 -42 13t-14 41l-3 50q-218 37 -218 235.5t219 247.5v38q0 48 14 63t44 15h58q30 0 42 -13
q16 -17 16 -62v-25q78 -3 155 -26q37 -11 37 -69q0 -28 -8.5 -50t-25 -22t-56 11t-66.5 11z" />
    <glyph glyph-name="sterling" unicode="&#xa3;" horiz-adv-x="1015" 
d="M736 340q0 -31 -12.5 -40.5t-35.5 -9.5h-129q6 -34 6 -49q0 -49 -29 -82q86 -34 176 -34t176 74q10 8 23.5 8t25.5 -17q18 -23 18 -73.5t-45 -84.5q-87 -63 -244 -63q-60 0 -150.5 34.5t-175.5 34.5q-53 0 -130 -30t-99 -30t-36.5 23.5t-14.5 54t16 53.5t48 25
q78 5 78 86q0 27 -10 70h-90q-23 0 -34 9.5t-12 40.5q0 31 12.5 40.5t35.5 9.5h60q-23 74 -23 104q0 229 341 229q171 0 292 -57q32 -15 45.5 -31.5t13.5 -58t-14.5 -60.5t-29 -21.5t-24.5 6.5q-33 28 -82.5 45t-85.5 17t-59.5 -22t-23.5 -59t16 -92h160q23 0 34.5 -9.5
t11.5 -40.5z" />
    <glyph glyph-name="currency" unicode="&#xa4;" horiz-adv-x="635" 
d="M215 529q43 23 100 23t105 -23q40 54 52 66t26 12t36 -22q32 -32 32 -50q0 -5 -12.5 -17.5t-62.5 -50.5q37 -56 37 -123.5t-37 -120.5q75 -56 75 -68q0 -18 -27 -45t-41 -27t-24.5 9.5t-54.5 67.5q-44 -22 -102 -22t-102 23q-40 -54 -52 -66t-26 -12t-36 22
q-32 32 -32 50q0 5 9 14.5t65 53.5q-36 54 -36 122t36 122q-56 44 -63 52q-11 11 -11 16q0 18 27 45t41 27t21 -7q26 -29 57 -71zM376 399.5q-21 22.5 -59.5 22.5t-59.5 -22.5t-21 -54t21 -54.5t59.5 -23t59.5 23t21 54.5t-21 54z" />
    <glyph glyph-name="yen" unicode="&#xa5;" horiz-adv-x="955" 
d="M887 700q20 0 20 -20q0 -13 -11 -28l-208 -329h88q23 0 34.5 -9.5t11.5 -40.5t-12.5 -40.5t-35.5 -9.5h-103q0 -28 -1 -42h106q23 0 34.5 -9.5t11.5 -40.5t-12.5 -40.5t-35.5 -9.5h-106l-1 -20q-1 -22 -19 -40.5t-48 -20.5q-57 -4 -137 -4t-147 4q-30 2 -48 20.5
t-19 40.5l-1 20h-98q-23 0 -34 9.5t-12 40.5q0 31 12.5 40.5t35.5 9.5h95v42h-97q-23 0 -34 9.5t-12 40.5q0 31 12.5 40.5t35.5 9.5h64l-171 287q-15 23 -15 38q0 50 49 50l342 2q29 0 43.5 -9t34.5 -37l61 -131q16 -22 26.5 -22t25.5 18l102 160q17 21 43 21h130z" />
    <glyph glyph-name="brokenbar" unicode="&#xa6;" horiz-adv-x="352" 
d="M60 216q0 42 44 42h144q44 0 44 -42q-2 -290 -5 -329t-15 -52t-42 -13h-108q-30 0 -42 13t-14 41q-6 81 -6 340zM60 469q0 260 6 341q2 28 14 41t42 13h108q30 0 42 -13t14 -41q6 -81 6 -341q0 -42 -44 -42h-144q-44 0 -44 42z" />
    <glyph glyph-name="section" unicode="&#xa7;" horiz-adv-x="823" 
d="M345 348q-31 -8 -31 -40q0 -23 15.5 -35.5t24.5 -19t25.5 -14t25 -10.5t26 -9.5t20.5 -7.5q31 8 31 40q0 23 -15.5 35.5t-24.5 19t-25.5 14t-25 10.5t-26 9.5t-20.5 7.5zM358 28q0 24 -28.5 46t-69.5 42t-82 43.5t-69.5 61.5t-28.5 86q0 81 70 134q-39 41 -39 94
q0 188 311 188q143 0 250 -46q55 -24 55 -56t-20 -57t-42 -25q-7 0 -51 13t-79 13q-70 0 -70 -42q0 -24 28.5 -46t69.5 -42t82 -43.5t69.5 -61.5t28.5 -86q0 -81 -70 -134q39 -41 39 -94q0 -188 -311 -188q-143 0 -249 46q-56 24 -56 56t20 57t42 25q7 0 51 -13t79 -13
q70 0 70 42z" />
    <glyph glyph-name="dieresis" unicode="&#xa8;" horiz-adv-x="596" 
d="M94 704.5q29 26.5 76.5 26.5t70.5 -25.5t23 -59.5t-28 -61.5t-70 -27.5t-71.5 23t-29.5 60.5t29 64zM360 704.5q29 26.5 76.5 26.5t70.5 -25.5t23 -59.5t-28 -61.5t-70 -27.5t-71.5 23t-29.5 60.5t29 64z" />
    <glyph glyph-name="copyright" unicode="&#xa9;" horiz-adv-x="833" 
d="M599.5 15q-71.5 -35 -163 -35t-170 31.5t-127 84.5t-74 118.5t-25.5 136.5t26 136.5t74.5 118.5t126.5 85t186.5 32t193.5 -51t123.5 -128.5t38.5 -159.5t-24.5 -151.5t-69 -126t-116 -91.5zM571 193q-48 -16 -154 -16t-159.5 44t-53.5 136t63.5 138t161 46t138.5 -12
q25 -8 25 -35.5t-6.5 -42t-24.5 -13.5q-53 8 -60 8q-37 0 -56.5 -22.5t-19.5 -54.5t18.5 -56.5t45 -25.5t79.5 -1q25 0 29 -26q1 -11 1 -21.5t-1 -20.5q-4 -19 -26 -25zM442 80q82 0 144.5 44.5t92.5 110.5t30 138q0 104 -69.5 177t-204.5 73t-215 -81t-80 -191.5
t79.5 -190.5t222.5 -80z" />
    <glyph glyph-name="ordfeminine" unicode="&#xaa;" horiz-adv-x="579" 
d="M538 581l1 -114q0 -46 -1 -63.5t-10 -25t-34 -7.5h-151q-21 0 -29 7.5t-9 22.5v6q-47 -45 -136 -45q-55 0 -92 24.5t-37 71t30 74.5q53 50 162 50q33 0 75 -8v2q0 25 -15.5 36.5t-57.5 11.5t-76 -15t-42 -15t-18 8q-11 11 -11 41.5t35 49.5q67 29 184 29q229 0 232 -141z
M308 515q0 12 -19 12t-28 -11t-9 -25.5t7 -24.5t26.5 -10t21.5 11q1 18 1 48z" />
    <glyph glyph-name="guillemotleft" unicode="&#xab;" horiz-adv-x="765" 
d="M70 201v46q0 26 21 44l204 175q14 12 23.5 12t16.5 -3q66 -36 66 -70q0 -12 -9 -23l-129 -158l129 -158q9 -11 9 -27t-22.5 -37t-37.5 -26.5t-24 -5.5t-16 7l-210 180q-21 18 -21 44zM374 201v46q0 26 21 44l204 175q14 12 23.5 12t16.5 -3q66 -36 66 -70q0 -12 -9 -23
l-129 -158l129 -158q9 -11 9 -27t-22.5 -37t-37.5 -26.5t-24 -5.5t-16 7l-210 180q-21 18 -21 44z" />
    <glyph glyph-name="logicalnot" unicode="&#xac;" horiz-adv-x="732" 
d="M60 364v17q0 70 73 70h468q34 0 52.5 -15t18.5 -55v-224q0 -36 -14 -53.5t-61 -17.5h-21q-46 0 -60.5 18.5t-14.5 54.5v138h-370q-35 0 -53 13.5t-18 53.5z" />
    <glyph glyph-name="uni00AD" unicode="&#xad;" horiz-adv-x="506" 
d="M425 279v-41q0 -31 -12.5 -40.5t-35.5 -9.5h-251q-23 0 -34 9.5t-12 40.5v41q0 31 12.5 40.5t35.5 9.5h251q23 0 34 -9.5t12 -40.5z" />
    <glyph glyph-name="registered" unicode="&#xae;" horiz-adv-x="833" 
d="M599.5 15q-71.5 -35 -163 -35t-170 31.5t-127 84.5t-74 118.5t-25.5 136.5t26 136.5t74.5 118.5t126.5 85t186.5 32t193.5 -51t123.5 -128.5t38.5 -159.5t-24.5 -151.5t-69 -126t-116 -91.5zM442 80q82 0 144.5 44.5t92.5 110.5t30 138q0 104 -69.5 177t-204.5 73
t-215 -81t-80 -191.5t79.5 -190.5t222.5 -80zM403 195l-57 -2q-56 0 -78 1q-38 3 -40 32q-4 38 -4 138t3 133q3 45 43 46h98q80 0 123 -1q62 -1 101 -45.5t39 -100.5q0 -72 -60 -106q28 -28 58 -64q4 -4 4 -12q0 -18 -19 -19q-13 -1 -50 -1t-52.5 0.5t-23.5 11.5l-43 64
q-4 5 -9 5t-5 -7v-51q0 -22 -28 -22zM426 429l1 -72q0 -10 10 -10q31 0 48 13t17 35q0 47 -64 47q-12 0 -12 -13z" />
    <glyph glyph-name="macron" unicode="&#xaf;" horiz-adv-x="581" 
d="M472 587l-363 1q-26 0 -37.5 11t-11.5 50.5t11.5 50t36.5 10.5h365q24 0 36 -11t12 -50.5t-11.5 -50.5t-37.5 -11z" />
    <glyph glyph-name="degree" unicode="&#xb0;" horiz-adv-x="424" 
d="M213 614q-25 0 -38 -14.5t-13 -35.5t13 -36t37 -15t38 16t14 36.5t-13 34.5t-38 14zM330.5 464q-43.5 -51 -120.5 -51t-118.5 50t-41 108t42.5 105t117.5 47t119 -44.5t44 -104t-43 -110.5z" />
    <glyph glyph-name="plusminus" unicode="&#xb1;" horiz-adv-x="833" 
d="M55 449v10q0 46 18.5 60.5t54.5 14.5h162v125q0 35 14 52.5t60 18.5h22q46 0 60.5 -18.5t14.5 -54.5v-123h164q35 0 52.5 -14t18.5 -61v-9q0 -48 -22 -62q-17 -11 -51 -11h-162v-135q0 -35 -14 -52.5t-61 -18.5h-21q-46 0 -60.5 18.5t-14.5 54.5v133h-164q-54 0 -65 32
q-5 15 -6 40zM696 70v-21q0 -46 -18.5 -60.5t-54.5 -14.5h-497q-35 0 -52.5 14t-18.5 60v22q0 46 18.5 60.5t54.5 14.5h497q35 0 52.5 -14t18.5 -61z" />
    <glyph glyph-name="twosuperior" unicode="&#xb2;" horiz-adv-x="568" 
d="M73 683q83 40 192 40t158 -33.5t49 -86.5q0 -97 -120 -152q-12 -6 -12 -9.5t11 -3.5t129 5q11 0 17 -16t6 -47t-8 -53t-32 -23q-124 -2 -187 -2t-134 1.5t-78 2t-15 6t-10 16.5l-5 36q-1 6 -1 12q0 24 15 35q7 5 31 19.5t41.5 27t37.5 28.5q42 35 42 72q0 19 -11.5 32
t-32.5 13q-44 0 -78 -33q-6 -6 -16 -4q-27 6 -27 66q0 33 38 51z" />
    <glyph glyph-name="threesuperior" unicode="&#xb3;" horiz-adv-x="543" 
d="M90 572q-30 0 -30 68q0 18 8 28t27 19q70 36 172 36q219 0 219 -114q0 -55 -69 -82q43 -14 64.5 -43t21.5 -63q0 -67 -63 -100.5t-187.5 -33.5t-179.5 18q-28 10 -30 31q-2 7 -2 19.5t2 19.5q2 42 32 42q2 0 35.5 -6.5t54.5 -6.5q47 0 47 42q0 22 -38 22l-54 -8
q-20 0 -26 13t-6 37t7 29t26 7q97 7 97 41q0 23 -38.5 23t-78.5 -33q-7 -5 -11 -5z" />
    <glyph glyph-name="acute" unicode="&#xb4;" horiz-adv-x="427" 
d="M109 570q-24 0 -24 15q0 6 6 14l52 98q17 26 47 26h120q32 0 32 -19q0 -15 -22 -33l-108 -90q-14 -11 -34 -11h-69z" />
    <glyph glyph-name="mu" unicode="&#xb5;" horiz-adv-x="866" 
d="M372 465l-1 -244q0 -29 13 -44t33.5 -15t39 15.5t26.5 42.5v61q0 132 6 180q3 17 17 30t49.5 15.5t70.5 2.5t119 -4q24 -1 38 -14t16 -30q7 -65 7 -199.5t-4 -183.5t-15 -64t-45 -15h-173q-32 0 -43 21t-14 70q-9 -41 -43.5 -70t-76.5 -29t-62 15q-2 2 -4.5 0.5t-0.5 -11
t7 -33.5q10 -54 10 -69q0 -36 -30 -53.5t-111 -17.5q-123 0 -133 46q-1 7 -4.5 165t-3.5 279.5t1 147.5t13.5 37.5t48.5 11.5l192 2q32 0 44.5 -11.5t12.5 -34.5z" />
    <glyph glyph-name="mu" unicode="&#x3bc;" horiz-adv-x="866" 
d="M372 465l-1 -244q0 -29 13 -44t33.5 -15t39 15.5t26.5 42.5v61q0 132 6 180q3 17 17 30t49.5 15.5t70.5 2.5t119 -4q24 -1 38 -14t16 -30q7 -65 7 -199.5t-4 -183.5t-15 -64t-45 -15h-173q-32 0 -43 21t-14 70q-9 -41 -43.5 -70t-76.5 -29t-62 15q-2 2 -4.5 0.5t-0.5 -11
t7 -33.5q10 -54 10 -69q0 -36 -30 -53.5t-111 -17.5q-123 0 -133 46q-1 7 -4.5 165t-3.5 279.5t1 147.5t13.5 37.5t48.5 11.5l192 2q32 0 44.5 -11.5t12.5 -34.5z" />
    <glyph glyph-name="paragraph" unicode="&#xb6;" horiz-adv-x="1032" 
d="M829 267l-2 -207q0 -137 -116 -188q-103 -45 -283 -45q-32 0 -42.5 19.5t-10.5 67t37 51.5q91 10 91 98v74q0 10 -8.5 16.5t-17.5 6.5h-78q-133 0 -202 70t-69 178t78 197.5t206 93.5q96 3 181.5 3t160.5 -2h145q14 0 24 -11q19 -21 19 -56t-8 -45.5t-25 -10.5h-63
q-18 0 -18 -21q1 -99 1 -236v-53z" />
    <glyph glyph-name="periodcentered" unicode="&#xb7;" horiz-adv-x="369" 
d="M95.5 337q35.5 34 95.5 34t89 -33t29 -76.5t-35 -79t-87.5 -35.5t-89.5 29.5t-37 78t35.5 82.5z" />
    <glyph glyph-name="cedilla" unicode="&#xb8;" horiz-adv-x="833" 
d="M296 -105l14 -1q37 0 37 18q0 14 -24.5 23.5t-24.5 24.5t11 23l103 -6q68 -12 68 -75q0 -28 -28 -51t-80 -25h-12q-79 0 -79 20q0 48 15 49z" />
    <glyph glyph-name="onesuperior" unicode="&#xb9;" horiz-adv-x="469" 
d="M345 716q28 0 37 -13t12 -43q5 -72 5 -157.5t-7 -151.5q-2 -14 -14 -25.5t-36.5 -13t-86.5 -1.5t-88 1.5t-37 13t-11 24.5q-5 75 -5 137.5t1 85.5l-28 2q-27 1 -27 39t5.5 49.5t27.5 16.5q140 26 252 36z" />
    <glyph glyph-name="ordmasculine" unicode="&#xba;" horiz-adv-x="636" 
d="M318.5 472q38.5 0 38.5 71t-38.5 71t-38.5 -71t38.5 -71zM596 543q0 -174 -278 -174t-278 170q0 87 71 134.5t207.5 47.5t207 -46.5t70.5 -131.5z" />
    <glyph glyph-name="guillemotright" unicode="&#xbb;" horiz-adv-x="765" 
d="M705 247v-46q0 -26 -21 -44l-210 -180q-7 -7 -16 -7t-24 5.5t-37.5 26.5t-22.5 37t9 27l129 158l-129 158q-9 11 -9 23q0 34 66 70q7 3 16.5 3t23.5 -12l204 -175q21 -18 21 -44zM401 247v-46q0 -26 -21 -44l-210 -180q-7 -7 -16 -7t-24 5.5t-37.5 26.5t-22.5 37t9 27
l129 158l-129 158q-9 11 -9 23q0 34 66 70q7 3 16.5 3t23.5 -12l204 -175q21 -18 21 -44z" />
    <glyph glyph-name="onequarter" unicode="&#xbc;" horiz-adv-x="1266" 
d="M786 662q23 26 36 32t39 6h131q24 0 31 -18q2 -5 2 -15t-25 -36.5t-234.5 -251t-325.5 -344.5q-22 -26 -35 -32t-40 -6h-131q-24 0 -31 19q-2 4 -2 14t14 25q182 188 571 607zM1181 85l-13 -1q0 -25 -2 -42q-6 -36 -45 -38.5t-87 -2.5t-96 3q-17 1 -26.5 11t-11.5 23
q-3 42 -3 46h-123q-64 2 -64 33l-1 26q0 23 11 37q88 117 178 210q9 7 27 7h195q27 0 35.5 -11.5t11.5 -44.5t3 -145v-22h11q12 0 18.5 -8t6.5 -18v-33q0 -30 -25 -30zM345 716q28 0 37 -13t12 -43q5 -72 5 -157.5t-7 -151.5q-2 -14 -14 -25.5t-36.5 -13t-86.5 -1.5t-88 1.5
t-37 13t-11 24.5q-5 75 -5 137.5t1 85.5l-28 2q-27 1 -27 39t5.5 49.5t27.5 16.5q140 26 252 36zM898 248q-15 -16 -33.5 -39t-18.5 -25t4 -2h48v66z" />
    <glyph glyph-name="onehalf" unicode="&#xbd;" horiz-adv-x="1337" 
d="M847 375q83 40 192 40t158 -33.5t49 -86.5q0 -97 -120 -152q-12 -6 -12 -9.5t11 -3.5t129 5q11 0 17 -16t6 -47t-8 -53t-32 -23q-124 -2 -187 -2t-134 1.5t-78 2t-15 6t-10 16.5l-5 36q-1 6 -1 12q0 24 15 35q7 5 31 19.5t41.5 27t37.5 28.5q42 35 42 72q0 19 -11.5 32
t-32.5 13q-44 0 -78 -33q-6 -6 -16 -4q-27 6 -27 66q0 33 38 51zM786 662q23 26 36 32t39 6h131q24 0 31 -18q2 -5 2 -15t-25 -36.5t-234.5 -251t-325.5 -344.5q-22 -26 -35 -32t-40 -6h-131q-24 0 -31 19q-2 4 -2 14t14 25q182 188 571 607zM345 716q28 0 37 -13t12 -43
q5 -72 5 -157.5t-7 -151.5q-2 -14 -14 -25.5t-36.5 -13t-86.5 -1.5t-88 1.5t-37 13t-11 24.5q-5 75 -5 137.5t1 85.5l-28 2q-27 1 -27 39t5.5 49.5t27.5 16.5q140 26 252 36z" />
    <glyph glyph-name="threequarters" unicode="&#xbe;" horiz-adv-x="1385" 
d="M905 662q23 26 36 32t39 6h131q24 0 31 -18q2 -5 2 -15t-25 -36.5t-234.5 -251t-325.5 -344.5q-22 -26 -35 -32t-40 -6h-131q-24 0 -31 19q-2 4 -2 14t14 25q182 188 571 607zM1300 85q-10 -1 -13 -1q0 -25 -3 -42q-5 -36 -44.5 -38.5t-87 -2.5t-95.5 3q-17 1 -26.5 11
t-11.5 23q-3 42 -3 46h-123q-64 2 -64 33l-1 26q0 23 11 37q88 117 178 210q9 7 27 7h195q27 0 35.5 -11.5t11.5 -44.5t3 -145v-22h11q12 0 18.5 -8t6.5 -18v-33q0 -30 -25 -30zM969 191q-7 -9 0 -9h48v66q-15 -16 -48 -57zM111 572q-30 0 -30 68q0 18 8 28t27 19
q70 36 172 36q219 0 219 -114q0 -55 -69 -82q43 -14 64.5 -43t21.5 -63q0 -67 -63 -100.5t-187.5 -33.5t-179.5 18q-28 10 -30 31q-2 7 -2 19.5t2 19.5q2 42 32 42q2 0 36 -6.5t54 -6.5q47 0 47 42q0 22 -38 22l-54 -8q-20 0 -26 13t-6 37t7 29t26 7q97 7 97 41
q0 23 -38.5 23t-78.5 -33q-7 -5 -11 -5z" />
    <glyph glyph-name="questiondown" unicode="&#xbf;" horiz-adv-x="679" 
d="M544 266l6 -58q0 -33 -25 -56t-55 -33t-55 -28.5t-25 -45t19.5 -41.5t48.5 -15q46 0 86 34q25 20 44 20t45 -29t26 -51t-21 -43q-94 -94 -308 -94q-110 0 -180 44.5t-70 137.5q0 36 23.5 64t57.5 45.5t67 32.5q81 38 81 81q0 3 -0.5 16t0 17t2.5 14t7 14q23 21 108 21
q25 0 69 -4.5t49 -42.5zM515.5 381q-35.5 -34 -95.5 -34t-89 33t-29 76.5t35 79t87.5 35.5t89.5 -29.5t37 -78t-35.5 -82.5z" />
    <glyph glyph-name="Agrave" unicode="&#xc0;" horiz-adv-x="1084" 
d="M702 653l327 -553q20 -33 20 -55.5t-18 -33.5t-42 -11h-322q-49 0 -63 18q-4 6 -11 21l-29 62q-13 29 -61 33h-189q-21 0 -32 -4t-18 -18l-39 -81q-10 -18 -22 -24.5t-35 -6.5h-90q-39 0 -42 28q-1 4 -1 8q0 23 15 44l313 552q45 78 146 78h80q80 0 113 -57zM378 397
l-46 -91q-4 -9 -4 -16q0 -26 25 -26h91q21 0 29 10.5t8 18.5t-3 16l-38 86q-12 26 -31 26t-31 -24zM689 758h-271q-47 0 -47 29q0 15 40 96q12 22 33 22q24 0 91 -25t108.5 -41t56 -21.5t14.5 -32.5t-25 -27z" />
    <glyph glyph-name="Aacute" unicode="&#xc1;" horiz-adv-x="1084" 
d="M702 653l327 -553q20 -33 20 -55.5t-18 -33.5t-42 -11h-322q-49 0 -63 18q-4 6 -11 21l-29 62q-13 29 -61 33h-189q-21 0 -32 -4t-18 -18l-39 -81q-10 -18 -22 -24.5t-35 -6.5h-90q-39 0 -42 28q-1 4 -1 8q0 23 15 44l313 552q45 78 146 78h80q80 0 113 -57zM378 397
l-46 -91q-4 -9 -4 -16q0 -26 25 -26h91q21 0 29 10.5t8 18.5t-3 16l-38 86q-12 26 -31 26t-31 -24zM705 758h-271q-25 0 -25 27t14.5 32.5t56 21.5t68.5 26q107 40 129.5 40t34.5 -22q40 -81 40 -96q0 -29 -47 -29z" />
    <glyph glyph-name="Acircumflex" unicode="&#xc2;" horiz-adv-x="1084" 
d="M702 653l327 -553q20 -33 20 -55.5t-18 -33.5t-42 -11h-322q-49 0 -63 18q-4 6 -11 21l-29 62q-13 29 -61 33h-189q-21 0 -32 -4t-18 -18l-39 -81q-10 -18 -22 -24.5t-35 -6.5h-90q-39 0 -42 28q-1 4 -1 8q0 23 15 44l313 552q45 78 146 78h80q80 0 113 -57zM378 397
l-46 -91q-4 -9 -4 -16q0 -26 25 -26h91q21 0 29 10.5t8 18.5t-3 16l-38 86q-12 26 -31 26t-31 -24zM509 942h66q20 0 55 -30l117 -102q5 -8 5 -16q0 -30 -11.5 -43.5t-20 -13.5t-14.5 3l-164 74l-164 -74q-6 -3 -14.5 -3t-19.5 13t-11.5 24t-0.5 19.5t5 16.5l117 102
q35 30 55 30z" />
    <glyph glyph-name="Atilde" unicode="&#xc3;" horiz-adv-x="1084" 
d="M702 653l327 -553q20 -33 20 -55.5t-18 -33.5t-42 -11h-322q-49 0 -63 18q-4 6 -11 21l-29 62q-13 29 -61 33h-189q-21 0 -32 -4t-18 -18l-39 -81q-10 -18 -22 -24.5t-35 -6.5h-90q-39 0 -42 28q-1 4 -1 8q0 23 15 44l313 552q45 78 146 78h80q80 0 113 -57zM378 397
l-46 -91q-7 -16 -1 -29t22 -13h91q21 0 29 10.5t8 18.5t-3 16l-38 86q-12 26 -31 26t-31 -24zM620 745q-45 0 -104 35.5t-84.5 35.5t-40.5 -12.5t-28 -43.5q-5 -11 -16 -11l-53 3q-10 3 -12.5 8t-2.5 18q0 99 48 154.5t129 55.5q45 0 104 -35.5t84.5 -35.5t40.5 12.5
t28 43.5q5 11 16 11l53 -3q10 -3 12.5 -8t2.5 -18q0 -99 -48 -154.5t-129 -55.5z" />
    <glyph glyph-name="Adieresis" unicode="&#xc4;" horiz-adv-x="1084" 
d="M702 653l327 -553q20 -33 20 -55.5t-18 -33.5t-42 -11h-322q-49 0 -63 18q-4 6 -11 21l-29 62q-13 29 -61 33h-189q-21 0 -32 -4t-18 -18l-39 -81q-10 -18 -22 -24.5t-35 -6.5h-90q-39 0 -42 28q-1 4 -1 8q0 23 15 44l313 552q45 78 146 78h80q80 0 113 -57zM378 397
l-46 -91q-7 -16 -1 -29t22 -13h91q21 0 29 10.5t8 18.5t-3 16l-38 86q-12 26 -31 26t-31 -24zM339 890.5q29 26.5 76.5 26.5t70.5 -25.5t23 -59.5t-28 -61.5t-70 -27.5t-71.5 23t-29.5 60.5t29 64zM605 890.5q29 26.5 76.5 26.5t70.5 -25.5t23 -59.5t-28 -61.5t-70 -27.5
t-71.5 23t-29.5 60.5t29 64z" />
    <glyph glyph-name="Aring" unicode="&#xc5;" horiz-adv-x="1084" 
d="M702 653l327 -553q20 -33 20 -55.5t-18 -33.5t-42 -11h-322q-49 0 -63 18q-4 6 -11 21l-29 62q-13 29 -61 33h-189q-21 0 -32 -4t-18 -18l-39 -81q-10 -18 -22 -24.5t-35 -6.5h-90q-39 0 -42 28q-1 4 -1 8q0 23 15 44l313 552q45 78 146 78h80q80 0 113 -57zM378 397
l-46 -91q-4 -9 -4 -16q0 -26 25 -26h91q21 0 29 10.5t8 18.5t-3 16l-38 86q-12 26 -31 26t-31 -24zM540 893q-18 0 -27.5 -11t-9.5 -26t9.5 -26t27 -11t28 12t10.5 27t-10 25t-28 10zM640.5 771.5q-37.5 -43.5 -103 -43.5t-101 42.5t-35 92t36.5 89.5t100.5 40t101.5 -38
t37.5 -88.5t-37 -94z" />
    <glyph glyph-name="AE" unicode="&#xc6;" horiz-adv-x="1234" 
d="M828 701l293 -1q59 0 59 -75q0 -59 -52 -59h-220q-21 0 -33.5 -14t-12.5 -36v-72q0 -30 27 -30h182q16 0 24.5 -3t15.5 -17.5t7 -47.5t-11.5 -44t-37.5 -11h-163q-25 0 -34.5 -12.5t-9.5 -38.5v-49q0 -43 41 -43h249q18 0 32 -10.5t14 -46t-17 -63.5t-40 -28h-588
q-28 0 -47.5 18.5t-23 50t-4 37t-2 11t-9.5 11.5t-22 6h-119q-34 0 -48 -22l-49 -81q-11 -18 -21 -24.5t-32 -6.5h-90q-39 0 -48 29q-3 10 -3 23t12 28l360 539q53 78 135 78zM345 285q0 -21 27 -21h69q34 0 34 38l-1 91q0 15 -7.5 23t-21 8t-27.5 -20l-65 -98
q-8 -10 -8 -21z" />
    <glyph glyph-name="Ccedilla" unicode="&#xc7;" horiz-adv-x="822" 
d="M326 -105l14 -1q37 0 37 18q0 14 -24.5 23.5t-24.5 25.5q0 6 4 14q3 8 -8 12q-141 21 -220.5 109.5t-79.5 233.5q0 102 33.5 179t94.5 123q121 91 319 91q128 0 256 -35q49 -16 49 -79q0 -86 -54 -86q-9 0 -59 8t-70 8q-71 0 -109.5 -49.5t-38.5 -118t36 -120.5t98 -54
q42 -2 149 -2q52 0 57 -49q3 -18 3 -36.5t-3 -37.5q-6 -36 -51 -51q-101 -33 -274 -40q-4 0 -2 -4l4 -2q48 -17 48 -73q0 -28 -28 -51t-80 -25h-12q-79 0 -79 20q0 48 15 49z" />
    <glyph glyph-name="Egrave" unicode="&#xc8;" horiz-adv-x="844" 
d="M86.5 18.5q-19.5 18.5 -25 61t-5.5 255t7 277.5q8 84 71 86q72 2 597 2q59 0 59 -75q0 -59 -52 -59h-220q-21 0 -33.5 -14t-12.5 -36v-72q0 -30 27 -30h182q16 0 24.5 -3t15.5 -17.5t7 -47.5t-11.5 -44t-37.5 -11h-163q-25 0 -34.5 -12.5t-9.5 -38.5v-49q0 -43 41 -43
h249q18 0 32 -10.5t14 -46t-17 -63.5t-40 -28h-617q-28 0 -47.5 18.5zM569 758h-271q-47 0 -47 29q0 15 40 96q12 22 33 22q24 0 91 -25t108.5 -41t56 -21.5t14.5 -32.5t-25 -27z" />
    <glyph glyph-name="Eacute" unicode="&#xc9;" horiz-adv-x="844" 
d="M86.5 18.5q-19.5 18.5 -25 61t-5.5 255t7 277.5q8 84 71 86q72 2 597 2q59 0 59 -75q0 -59 -52 -59h-220q-21 0 -33.5 -14t-12.5 -36v-72q0 -30 27 -30h182q16 0 24.5 -3t15.5 -17.5t7 -47.5t-11.5 -44t-37.5 -11h-163q-25 0 -34.5 -12.5t-9.5 -38.5v-49q0 -43 41 -43
h249q18 0 32 -10.5t14 -46t-17 -63.5t-40 -28h-617q-28 0 -47.5 18.5zM596 758h-271q-25 0 -25 27t14.5 32.5t56 21.5t68.5 26q107 40 129.5 40t34.5 -22q40 -81 40 -96q0 -29 -47 -29z" />
    <glyph glyph-name="Ecircumflex" unicode="&#xca;" horiz-adv-x="844" 
d="M86.5 18.5q-19.5 18.5 -25 61t-5.5 255t7 277.5q8 84 71 86q72 2 597 2q59 0 59 -75q0 -59 -52 -59h-220q-21 0 -33.5 -14t-12.5 -36v-72q0 -30 27 -30h182q16 0 24.5 -3t15.5 -17.5t7 -47.5t-11.5 -44t-37.5 -11h-163q-25 0 -34.5 -12.5t-9.5 -38.5v-49q0 -43 41 -43
h249q18 0 32 -10.5t14 -46t-17 -63.5t-40 -28h-617q-28 0 -47.5 18.5zM389 942h66q20 0 55 -30l117 -102q5 -8 5 -16q0 -30 -11.5 -43.5t-20 -13.5t-14.5 3l-164 74l-164 -74q-6 -3 -14.5 -3t-19.5 13t-11.5 24t-0.5 19.5t5 16.5l117 102q35 30 55 30z" />
    <glyph glyph-name="Edieresis" unicode="&#xcb;" horiz-adv-x="844" 
d="M86.5 18.5q-19.5 18.5 -25 61t-5.5 255t7 277.5q8 84 71 86q72 2 597 2q59 0 59 -75q0 -59 -52 -59h-220q-21 0 -33.5 -14t-12.5 -36v-72q0 -30 27 -30h182q16 0 24.5 -3t15.5 -17.5t7 -47.5t-11.5 -44t-37.5 -11h-163q-25 0 -34.5 -12.5t-9.5 -38.5v-49q0 -43 41 -43
h249q18 0 32 -10.5t14 -46t-17 -63.5t-40 -28h-617q-28 0 -47.5 18.5zM218 890.5q29 26.5 76.5 26.5t70.5 -25.5t23 -59.5t-28 -61.5t-70 -27.5t-71.5 23t-29.5 60.5t29 64zM484 890.5q29 26.5 76.5 26.5t70.5 -25.5t23 -59.5t-28 -61.5t-70 -27.5t-71.5 23t-29.5 60.5
t29 64z" />
    <glyph glyph-name="Igrave" unicode="&#xcc;" horiz-adv-x="544" 
d="M138 700h268q42 0 55.5 -21t18 -86.5t4.5 -254t-8 -276.5q-3 -23 -20.5 -41t-46.5 -20q-57 -4 -132 -4t-142 4q-29 2 -46.5 20t-20.5 41q-8 88 -8 276.5t4.5 254t18 86.5t55.5 21zM419 758h-271q-47 0 -47 29q0 15 40 96q12 22 33 22q24 0 91 -25t108.5 -41t56 -21.5
t14.5 -32.5t-25 -27z" />
    <glyph glyph-name="Iacute" unicode="&#xcd;" horiz-adv-x="544" 
d="M138 700h268q42 0 55.5 -21t18 -86.5t4.5 -254t-8 -276.5q-3 -23 -20.5 -41t-46.5 -20q-57 -4 -132 -4t-142 4q-29 2 -46.5 20t-20.5 41q-8 88 -8 276.5t4.5 254t18 86.5t55.5 21zM404 758h-271q-25 0 -25 27t14.5 32.5t56 21.5t68.5 26q107 40 129.5 40t34.5 -22
q40 -81 40 -96q0 -29 -47 -29z" />
    <glyph glyph-name="Icircumflex" unicode="&#xce;" horiz-adv-x="544" 
d="M138 700h268q42 0 55.5 -21t18 -86.5t4.5 -254t-8 -276.5q-3 -23 -20.5 -41t-46.5 -20q-57 -4 -132 -4t-142 4q-29 2 -46.5 20t-20.5 41q-8 88 -8 276.5t4.5 254t18 86.5t55.5 21zM239 942h66q20 0 55 -30l117 -102q5 -8 5 -16q0 -30 -11.5 -43.5t-20 -13.5t-14.5 3
l-164 74l-164 -74q-6 -3 -14.5 -3t-19.5 13t-11.5 24t-0.5 19.5t5 16.5l117 102q35 30 55 30z" />
    <glyph glyph-name="Idieresis" unicode="&#xcf;" horiz-adv-x="544" 
d="M138 700h268q42 0 55.5 -21t18 -86.5t4.5 -254t-8 -276.5q-3 -23 -20.5 -41t-46.5 -20q-57 -4 -132 -4t-142 4q-29 2 -46.5 20t-20.5 41q-8 88 -8 276.5t4.5 254t18 86.5t55.5 21zM69 890.5q29 26.5 76.5 26.5t70.5 -25.5t23 -59.5t-28 -61.5t-70 -27.5t-71.5 23
t-29.5 60.5t29 64zM335 890.5q29 26.5 76.5 26.5t70.5 -25.5t23 -59.5t-28 -61.5t-70 -27.5t-71.5 23t-29.5 60.5t29 64z" />
    <glyph glyph-name="Eth" unicode="&#xd0;" horiz-adv-x="909" 
d="M530 2q-67 -6 -192 -6t-170.5 3.5t-68.5 16.5t-25 41q-7 122 -7 249h-29q-16 0 -24.5 3t-15.5 17.5t-7 47.5t11.5 44t37.5 11h28q2 112 4 168q2 96 89 102q61 4 187 4t197.5 -3.5t138 -33t106.5 -76.5q83 -97 83 -225q0 -135 -87 -241q-42 -51 -108.5 -84t-147.5 -38z
M485 484v-55h59q16 0 24.5 -3t15.5 -17.5t7 -47.5t-11.5 -44t-37.5 -11h-57v-64q0 -8 6 -15t16 -7q64 0 98.5 44t34.5 104t-31.5 104.5t-84.5 44.5q-13 0 -20 -1q-19 -5 -19 -32z" />
    <glyph glyph-name="Ntilde" unicode="&#xd1;" horiz-adv-x="965" 
d="M738 700h107q34 0 47.5 -11t14.5 -45q6 -152 6 -327t-7 -256q-2 -23 -17.5 -42t-40.5 -19h-167q-35 0 -77 25q-232 137 -292 167q-12 5 -19.5 -3.5t-7.5 -31.5v-111q0 -19 -14 -30q-21 -17 -108 -17q-24 0 -46.5 1.5t-37 20t-16.5 41.5q-7 90 -7 275.5t4 252.5t15 88.5
t45 21.5h110q34 0 70 -19q310 -161 362 -187q17 -8 27 -2t10 22v140q0 20 10.5 33t28.5 13zM573 740q-45 0 -104 35.5t-84.5 35.5t-40.5 -12.5t-28 -43.5q-6 -11 -16 -11l-53 3q-10 3 -12.5 8t-2.5 18q0 99 48 154.5t129 55.5q45 0 104 -35.5t84.5 -35.5t40.5 12.5t28 43.5
q6 11 16 11l53 -3q10 -3 12.5 -8t2.5 -18q0 -99 -48 -154.5t-129 -55.5z" />
    <glyph glyph-name="Ograve" unicode="&#xd2;" horiz-adv-x="1043" 
d="M543 -20q-121 0 -219 31.5t-159 84.5t-93 118.5t-32 136.5t32.5 136.5t93 118.5t158.5 85t215 32t207 -29t145 -79q112 -102 112 -242q0 -71 -30.5 -139t-87 -123.5t-145.5 -91t-197 -39.5zM707 451.5q-34 35.5 -103.5 35.5t-110.5 -37t-41 -90t43 -85t103.5 -32
t101.5 39t41 86.5t-34 83zM669 758h-271q-47 0 -47 29q0 15 40 96q12 22 33 22q24 0 91 -25t108.5 -41t56 -21.5t14.5 -32.5t-25 -27z" />
    <glyph glyph-name="Oacute" unicode="&#xd3;" horiz-adv-x="1043" 
d="M543 -20q-121 0 -219 31.5t-159 84.5t-93 118.5t-32 136.5t32.5 136.5t93 118.5t158.5 85t215 32t207 -29t145 -79q112 -102 112 -242q0 -71 -30.5 -139t-87 -123.5t-145.5 -91t-197 -39.5zM707 451.5q-34 35.5 -103.5 35.5t-110.5 -37t-41 -90t43 -85t103.5 -32
t101.5 39t41 86.5t-34 83zM703 758h-271q-25 0 -25 27t14.5 32.5t56 21.5t68.5 26q107 40 129.5 40t34.5 -22q40 -81 40 -96q0 -29 -47 -29z" />
    <glyph glyph-name="Ocircumflex" unicode="&#xd4;" horiz-adv-x="1043" 
d="M543 -20q-121 0 -219 31.5t-159 84.5t-93 118.5t-32 136.5t32.5 136.5t93 118.5t158.5 85t215 32t207 -29t145 -79q112 -102 112 -242q0 -71 -30.5 -139t-87 -123.5t-145.5 -91t-197 -39.5zM707 451.5q-34 35.5 -103.5 35.5t-110.5 -37t-41 -90t43 -85t103.5 -32
t101.5 39t41 86.5t-34 83zM501 942h66q20 0 55 -30l117 -102q5 -8 5 -16q0 -30 -11.5 -43.5t-20 -13.5t-14.5 3l-164 74l-164 -74q-6 -3 -14.5 -3t-19.5 13t-11.5 24t-0.5 19.5t5 16.5l117 102q35 30 55 30z" />
    <glyph glyph-name="Otilde" unicode="&#xd5;" horiz-adv-x="1043" 
d="M543 -20q-121 0 -219 31.5t-159 84.5t-93 118.5t-32 136.5t32.5 136.5t93 118.5t158.5 85t215 32t207 -29t145 -79q112 -102 112 -242q0 -71 -30.5 -139t-87 -123.5t-145.5 -91t-197 -39.5zM707 451.5q-34 35.5 -103.5 35.5t-110.5 -37t-41 -90t43 -85t103.5 -32
t101.5 39t41 86.5t-34 83zM635 752q-45 0 -104 35.5t-84.5 35.5t-40.5 -12.5t-28 -43.5q-6 -11 -16 -11l-53 3q-10 3 -12.5 8t-2.5 18q0 99 48 154.5t129 55.5q45 0 104 -35.5t84.5 -35.5t40.5 12.5t28 43.5q6 11 16 11l53 -3q10 -3 12.5 -8t2.5 -18q0 -99 -48 -154.5
t-129 -55.5z" />
    <glyph glyph-name="Odieresis" unicode="&#xd6;" horiz-adv-x="1043" 
d="M543 -20q-121 0 -219 31.5t-159 84.5t-93 118.5t-32 136.5t32.5 136.5t93 118.5t158.5 85t215 32t207 -29t145 -79q112 -102 112 -242q0 -71 -30.5 -139t-87 -123.5t-145.5 -91t-197 -39.5zM707 451.5q-34 35.5 -103.5 35.5t-110.5 -37t-41 -90t43 -85t103.5 -32
t101.5 39t41 86.5t-34 83zM331 890.5q29 26.5 76.5 26.5t70.5 -25.5t23 -59.5t-28 -61.5t-70 -27.5t-71.5 23t-29.5 60.5t29 64zM597 890.5q29 26.5 76.5 26.5t70.5 -25.5t23 -59.5t-28 -61.5t-70 -27.5t-71.5 23t-29.5 60.5t29 64z" />
    <glyph glyph-name="multiply" unicode="&#xd7;" horiz-adv-x="751" 
d="M141 572l15 16q27 27 53 27t52 -26l114 -114l116 116q24 24 48.5 24t54.5 -27l16 -15q27 -27 27 -53t-26 -52l-114 -115l116 -115q24 -24 24 -49t-27 -55l-15 -15q-27 -27 -53 -27t-52 26l-115 114l-115 -116q-24 -24 -49 -24t-55 27l-15 15q-27 27 -27 53t26 52l114 114
l-116 116q-24 24 -24 48.5t27 54.5z" />
    <glyph glyph-name="Oslash" unicode="&#xd8;" horiz-adv-x="1043" 
d="M543 -20q-168 0 -289 59l-28 -25q-25 -37 -60 -37h-64q-16 0 -23.5 11t-7.5 19.5t7 18.5l83 73q-121 103 -121 252q0 71 32.5 136.5t93 118.5t158.5 85t235 32t249 -55l23 21q26 37 61 37h64q15 0 22 -11t7 -19t-5 -18l-81 -71q104 -95 104 -234q0 -71 -30.5 -139
t-87 -123.5t-145.5 -91t-197 -39.5zM707 451.5q-34 35.5 -103.5 35.5t-110.5 -37t-41 -90t43 -85t103.5 -32t101.5 39t41 86.5t-34 83z" />
    <glyph glyph-name="Ugrave" unicode="&#xd9;" horiz-adv-x="885" 
d="M448 595l-2 -91v-193q0 -42 26 -65t61 -23t60.5 23t25.5 65v298q0 47 12.5 69t54.5 22h92q32 0 44 -19q23 -34 23 -263q0 -75 -2 -115q-3 -81 -37.5 -144.5t-88.5 -101.5q-109 -77 -247 -77q-182 0 -301 85q-60 43 -94.5 114.5t-35.5 166.5q-1 47 -1 138.5t2.5 132t16 62
t54.5 21.5h267q40 0 53 -21q17 -27 17 -84zM609 758h-271q-47 0 -47 29q0 15 40 96q12 22 33 22q24 0 91 -25t108.5 -41t56 -21.5t14.5 -32.5t-25 -27z" />
    <glyph glyph-name="Uacute" unicode="&#xda;" horiz-adv-x="885" 
d="M448 595l-2 -91v-193q0 -42 26 -65t61 -23t60.5 23t25.5 65v298q0 47 12.5 69t54.5 22h92q32 0 44 -19q23 -34 23 -263q0 -75 -2 -115q-3 -81 -37.5 -144.5t-88.5 -101.5q-109 -77 -247 -77q-182 0 -301 85q-60 43 -94.5 114.5t-35.5 166.5q-1 47 -1 138.5t2.5 132t16 62
t54.5 21.5h267q40 0 53 -21q17 -27 17 -84zM679 758h-271q-25 0 -25 27t14.5 32.5t56 21.5t68.5 26q107 40 129.5 40t34.5 -22q40 -81 40 -96q0 -29 -47 -29z" />
    <glyph glyph-name="Ucircumflex" unicode="&#xdb;" horiz-adv-x="885" 
d="M448 595l-2 -91v-193q0 -42 26 -65t61 -23t60.5 23t25.5 65v298q0 47 12.5 69t54.5 22h92q32 0 44 -19q23 -34 23 -263q0 -75 -2 -115q-3 -81 -37.5 -144.5t-88.5 -101.5q-109 -77 -247 -77q-182 0 -301 85q-60 43 -94.5 114.5t-35.5 166.5q-1 47 -1 138.5t2.5 132t16 62
t54.5 21.5h267q40 0 53 -21q17 -27 17 -84zM499 942h66q20 0 55 -30l117 -102q5 -8 5 -16q0 -30 -11.5 -43.5t-20 -13.5t-14.5 3l-164 74l-164 -74q-6 -3 -14.5 -3t-19.5 13t-11.5 24t-0.5 19.5t5 16.5l117 102q35 30 55 30z" />
    <glyph glyph-name="Udieresis" unicode="&#xdc;" horiz-adv-x="885" 
d="M448 595l-2 -91v-193q0 -42 26 -65t61 -23t60.5 23t25.5 65v298q0 47 12.5 69t54.5 22h92q32 0 44 -19q23 -34 23 -263q0 -75 -2 -115q-3 -81 -37.5 -144.5t-88.5 -101.5q-109 -77 -247 -77q-182 0 -301 85q-60 43 -94.5 114.5t-35.5 166.5q-1 47 -1 138.5t2.5 132t16 62
t54.5 21.5h267q40 0 53 -21q17 -27 17 -84zM326 890.5q29 26.5 76.5 26.5t70.5 -25.5t23 -59.5t-28 -61.5t-70 -27.5t-71.5 23t-29.5 60.5t29 64zM592 890.5q29 26.5 76.5 26.5t70.5 -25.5t23 -59.5t-28 -61.5t-70 -27.5t-71.5 23t-29.5 60.5t29 64z" />
    <glyph glyph-name="Yacute" unicode="&#xdd;" horiz-adv-x="955" 
d="M887 700q20 0 20 -20q0 -13 -11 -28l-224 -355q0 -81 -5 -236q-1 -22 -19 -40.5t-48 -20.5q-57 -4 -137 -4t-147 4q-30 2 -48 20.5t-19 40.5q-2 101 -2 210l-202 339q-15 23 -15 38q0 50 49 50l342 2q29 0 43.5 -9t34.5 -37l61 -131q16 -22 26.5 -22t25.5 18l102 160
q17 21 43 21h130zM711 757h-271q-25 0 -25 27t14.5 32.5t56 21.5t68.5 26q107 40 129.5 40t34.5 -22q40 -81 40 -96q0 -29 -47 -29z" />
    <glyph glyph-name="Thorn" unicode="&#xde;" horiz-adv-x="927" 
d="M138 700h268q42 0 55.5 -21t16.5 -70q0 -5 1 -9q29 0 109 -2q127 -2 204 -76.5t77 -175t-69 -170.5t-202 -70h-119l-3 -44q-2 -22 -19.5 -40.5t-47.5 -20.5q-57 -4 -132 -4t-142 4q-29 2 -46.5 20t-20.5 41q-8 88 -8 276.5t4.5 254t18 86.5t55.5 21zM484 452l2 -200
q0 -21 21 -21q63 0 98.5 37.5t35.5 88.5t-33.5 87.5t-98.5 36.5q-25 0 -25 -29z" />
    <glyph glyph-name="germandbls" unicode="&#xdf;" horiz-adv-x="992" 
d="M805 510q0 -35 -17.5 -61t-34.5 -47t-17 -46t34 -46t74.5 -34.5t74.5 -44t34 -72.5t-22.5 -82.5t-56.5 -61.5q-63 -37 -185 -37t-202 41q-27 11 -39 22.5t-12 42t12.5 43.5t21.5 13t22 -12q41 -34 86 -34q17 0 30.5 11t13.5 34t-18 39.5t-44 25.5t-51.5 20.5t-43.5 39
t-18 68.5t23.5 72.5t47 56.5t23.5 48.5t-22.5 42t-50.5 18.5q-49 0 -71.5 -28.5t-22.5 -69.5v-406q0 -34 -12 -50t-47 -16h-195q-35 0 -47.5 16t-12.5 50q1 136 1 392q0 69 32 121.5t86 83.5q108 62 257 62q206 0 312 -93q57 -51 57 -122z" />
    <glyph glyph-name="agrave" unicode="&#xe0;" horiz-adv-x="813" 
d="M500 697l52 -98q9 -13 3.5 -21t-21.5 -8h-69q-20 0 -36.5 13t-34.5 28t-38.5 32.5t-32.5 27.5t-18.5 22t0 21t28.5 9h120q30 0 47 -26zM422 525q326 0 329 -212q2 -90 2 -165t-1 -101t-13.5 -37.5t-48.5 -11.5h-212q-32 0 -44 11.5t-13 34.5q0 1 -0.5 3.5t-0.5 4.5
q-66 -68 -180 -68q-79 0 -134.5 39.5t-55.5 109t39.5 111t94 56.5t117 15t122.5 -12v4q0 50 -19.5 72t-63 22t-72.5 -7.5t-44 -15.5q-41 -24 -57 -24t-28.5 15t-12.5 46.5t11.5 43.5t36.5 24q87 42 248 42zM375 116q44 0 45 17q2 33 2 87q0 21 -32 21t-52 -15.5t-20 -45.5
t16.5 -47t40.5 -17z" />
    <glyph glyph-name="aacute" unicode="&#xe1;" horiz-adv-x="813" 
d="M382 599l52 98q17 26 47 26h120q22 0 29 -9q12 -17 -19 -43l-108 -90q-14 -11 -34 -11h-69q-16 0 -21.5 8t3.5 21zM422 525q326 0 329 -212q2 -90 2 -165t-1 -101t-13.5 -37.5t-48.5 -11.5h-212q-32 0 -44 11.5t-13 34.5q0 1 -0.5 3.5t-0.5 4.5q-66 -68 -180 -68
q-79 0 -134.5 39.5t-55.5 109t39.5 111t94 56.5t117 15t122.5 -12v4q0 50 -19.5 72t-63 22t-72.5 -7.5t-44 -15.5q-41 -24 -57 -24t-28.5 15t-12.5 46.5t11.5 43.5t36.5 24q87 42 248 42zM375 116q44 0 45 17q2 33 2 87q0 21 -32 21t-52 -15.5t-20 -45.5t16.5 -47t40.5 -17z
" />
    <glyph glyph-name="acircumflex" unicode="&#xe2;" horiz-adv-x="813" 
d="M422 525q326 0 329 -212q2 -90 2 -165t-1 -101t-13.5 -37.5t-48.5 -11.5h-212q-32 0 -44 11.5t-13 34.5q0 1 -0.5 3.5t-0.5 4.5q-66 -68 -180 -68q-79 0 -134.5 39.5t-55.5 109t39.5 111t94 56.5t117 15t122.5 -12v4q0 50 -19.5 72t-63 22t-72.5 -7.5t-44 -15.5
q-41 -24 -57 -24t-28.5 15t-12.5 46.5t11.5 43.5t36.5 24q87 42 248 42zM375 116q44 0 45 17q2 33 2 87q0 21 -32 21t-52 -15.5t-20 -45.5t16.5 -47t40.5 -17zM414 745h66q20 0 55 -30l117 -102q5 -8 5 -17q0 -29 -11.5 -42.5t-20 -13.5t-14.5 3l-164 74l-164 -74
q-6 -3 -14.5 -3t-19.5 13t-11.5 24t-0.5 19.5t5 16.5l117 102q35 30 55 30z" />
    <glyph glyph-name="atilde" unicode="&#xe3;" horiz-adv-x="813" 
d="M516 554q-34 0 -77.5 29.5t-63 29.5t-30.5 -9.5t-22 -32.5q-9 -9 -19 -9h-64q-13 0 -13 23q0 73 43.5 114t115.5 41q34 0 77.5 -29.5t63 -29.5t30.5 9.5t22 32.5q9 9 19 9h64q13 0 13 -23q0 -73 -43.5 -114t-115.5 -41zM422 525q326 0 329 -212q2 -90 2 -165t-1 -101
t-13.5 -37.5t-48.5 -11.5h-212q-32 0 -44 11.5t-13 34.5q0 1 -0.5 3.5t-0.5 4.5q-66 -68 -180 -68q-79 0 -134.5 39.5t-55.5 109t39.5 111t94 56.5t117 15t122.5 -12v4q0 50 -19.5 72t-63 22t-72.5 -7.5t-44 -15.5q-41 -24 -57 -24t-28.5 15t-12.5 46.5t11.5 43.5t36.5 24
q87 42 248 42zM375 116q44 0 45 17q2 33 2 87q0 21 -32 21t-52 -15.5t-20 -45.5t16.5 -47t40.5 -17z" />
    <glyph glyph-name="adieresis" unicode="&#xe4;" horiz-adv-x="813" 
d="M422 525q326 0 329 -212q2 -90 2 -165t-1 -101t-13.5 -37.5t-48.5 -11.5h-212q-32 0 -44 11.5t-13 34.5q0 1 -0.5 3.5t-0.5 4.5q-66 -68 -180 -68q-79 0 -134.5 39.5t-55.5 109t39.5 111t94 56.5t117 15t122.5 -12v4q0 50 -19.5 72t-63 22t-72.5 -7.5t-44 -15.5
q-41 -24 -57 -24t-28.5 15t-12.5 46.5t11.5 43.5t36.5 24q87 42 248 42zM375 116q44 0 45 17q2 33 2 87q0 21 -32 21t-52 -15.5t-20 -45.5t16.5 -47t40.5 -17zM220 704.5q29 26.5 76.5 26.5t70.5 -25.5t23 -59.5t-28 -61.5t-70 -27.5t-71.5 23t-29.5 60.5t29 64zM486 704.5
q29 26.5 76.5 26.5t70.5 -25.5t23 -59.5t-28 -61.5t-70 -27.5t-71.5 23t-29.5 60.5t29 64z" />
    <glyph glyph-name="aring" unicode="&#xe5;" horiz-adv-x="803" 
d="M412 525q326 0 329 -212q2 -90 2 -165t-1 -101t-13.5 -37.5t-48.5 -11.5h-212q-32 0 -44 11.5t-13 34.5q0 1 -0.5 3.5t-0.5 4.5q-66 -68 -180 -68q-79 0 -134.5 39.5t-55.5 109t39.5 111t94 56.5t117 15t122.5 -12v4q0 50 -19.5 72t-63 22t-72.5 -7.5t-44 -15.5
q-41 -24 -57 -24t-28.5 15t-12.5 46.5t11.5 43.5t36.5 24q87 42 248 42zM365 116q44 0 45 17q2 33 2 87q0 21 -32 21t-52 -15.5t-20 -45.5t16.5 -47t40.5 -17zM440 743q-18 0 -27.5 -11t-9.5 -26t9.5 -26t27 -11t28 12t10.5 27t-10 25t-28 10zM540.5 621.5
q-37.5 -43.5 -103 -43.5t-101 42.5t-35 92t36.5 89.5t100.5 40t101.5 -38t37.5 -88.5t-37 -94z" />
    <glyph glyph-name="ae" unicode="&#xe6;" horiz-adv-x="1114" 
d="M429 147q-17 39 -17 73q0 21 -32 21t-52 -15.5t-20 -45t16.5 -47t42.5 -17.5q47 0 62 31zM458 97q-95 -113 -228 -113q-79 0 -134.5 39.5t-55.5 109t39.5 111t94 56.5t117 15t122.5 -12v4q0 50 -19.5 72t-63 22t-72.5 -7.5t-44 -15.5q-41 -24 -57 -24t-28.5 15
t-12.5 46.5t11.5 43.5t36.5 24q87 42 228.5 42t217.5 -30q75 26 160.5 26t150.5 -17.5t97 -47.5q56 -55 56 -129q0 -116 -196 -116q-69 0 -143 13q3 -66 24.5 -93t76.5 -27t91 12t58 24.5t37.5 12.5t26.5 -14q17 -18 17 -49.5t-12.5 -43t-39.5 -22.5q-95 -40 -276 -40
q-90 0 -164 30t-116 83zM802 407q-61 0 -66 -99q48 -4 50 -4q66 0 66 44q0 59 -50 59z" />
    <glyph glyph-name="ccedilla" unicode="&#xe7;" horiz-adv-x="676" 
d="M296 -105l14 -1q37 0 37 18q0 14 -24.5 23.5t-24.5 25.5q0 11 6 18v4q-185 23 -234 143q-20 47 -20 119.5t31.5 129.5t86.5 87q104 56 260 56q84 0 171 -27q37 -12 37 -80.5t-35 -68.5q-15 0 -54.5 11.5t-66.5 11.5q-47 0 -70 -31t-23 -77t27 -79t87 -33q19 0 56 10
t52 10q35 0 37 -67q0 -29 -3.5 -54t-37.5 -36q-89 -28 -180 -31q0 -2 2 -3q53 -15 53 -72q0 -28 -28 -51t-80 -25h-12q-79 0 -79 20q0 48 15 49z" />
    <glyph glyph-name="egrave" unicode="&#xe8;" horiz-adv-x="742" 
d="M424 695l52 -98q9 -13 3.5 -21t-21.5 -8h-69q-20 0 -36.5 13t-34.5 28t-38.5 32.5t-32.5 27.5t-18.5 22t0 21t28.5 9h120q30 0 47 -26zM292.5 511q48.5 10 120 10t136.5 -17.5t97 -47.5q56 -55 56 -129q0 -116 -196 -116q-69 0 -143 13q3 -66 24.5 -93t76.5 -27t91 12
t58 24.5t37.5 12.5t26.5 -14q17 -18 17 -49.5t-12.5 -43t-39.5 -22.5q-95 -40 -270 -40q-145 0 -238.5 69.5t-93.5 187.5q0 57 21 104.5t56 79t81 54t94.5 32.5zM430 407q-61 0 -66 -99q48 -4 50 -4q66 0 66 44q0 59 -50 59z" />
    <glyph glyph-name="eacute" unicode="&#xe9;" horiz-adv-x="742" 
d="M344 597l52 98q17 26 47 26h120q22 0 28.5 -9t0 -21t-18.5 -22t-33 -27q-45 -39 -75 -63q-14 -11 -34 -11h-69q-16 0 -21.5 8t3.5 21zM292.5 511q48.5 10 120 10t136.5 -17.5t97 -47.5q56 -55 56 -129q0 -116 -196 -116q-69 0 -143 13q3 -66 24.5 -93t76.5 -27t91 12
t58 24.5t37.5 12.5t26.5 -14q17 -18 17 -49.5t-12.5 -43t-39.5 -22.5q-95 -40 -270 -40q-145 0 -238.5 69.5t-93.5 187.5q0 57 21 104.5t56 79t81 54t94.5 32.5zM430 407q-61 0 -66 -99q48 -4 50 -4q66 0 66 44q0 59 -50 59z" />
    <glyph glyph-name="ecircumflex" unicode="&#xea;" horiz-adv-x="742" 
d="M292.5 511q48.5 10 120 10t136.5 -17.5t97 -47.5q56 -55 56 -129q0 -116 -196 -116q-69 0 -143 13q3 -66 24.5 -93t76.5 -27t91 12t58 24.5t37.5 12.5t26.5 -14q17 -18 17 -49.5t-12.5 -43t-39.5 -22.5q-95 -40 -270 -40q-145 0 -238.5 69.5t-93.5 187.5q0 57 21 104.5
t56 79t81 54t94.5 32.5zM430 407q-61 0 -66 -99q48 -4 50 -4q66 0 66 44q0 59 -50 59zM384 747h66q20 0 55 -30l117 -102q5 -8 5 -17q0 -29 -11.5 -42.5t-20 -13.5t-14.5 3l-164 74l-164 -74q-6 -3 -14.5 -3t-19.5 13t-11.5 24t-0.5 19.5t5 16.5l117 102q35 30 55 30z" />
    <glyph glyph-name="edieresis" unicode="&#xeb;" horiz-adv-x="742" 
d="M292.5 511q48.5 10 120 10t136.5 -17.5t97 -47.5q56 -55 56 -129q0 -116 -196 -116q-69 0 -143 13q3 -66 24.5 -93t76.5 -27t91 12t58 24.5t37.5 12.5t26.5 -14q17 -18 17 -49.5t-12.5 -43t-39.5 -22.5q-95 -40 -270 -40q-145 0 -238.5 69.5t-93.5 187.5q0 57 21 104.5
t56 79t81 54t94.5 32.5zM430 407q-61 0 -66 -99q48 -4 50 -4q66 0 66 44q0 59 -50 59zM209 705.5q29 26.5 76.5 26.5t70.5 -25.5t23 -59.5t-28 -61.5t-70 -27.5t-71.5 23t-29.5 60.5t29 64zM475 705.5q29 26.5 76.5 26.5t70.5 -25.5t23 -59.5t-28 -61.5t-70 -27.5t-71.5 23
t-29.5 60.5t29 64z" />
    <glyph glyph-name="igrave" unicode="&#xec;" horiz-adv-x="443" 
d="M266 697l52 -98q9 -13 3.5 -21t-21.5 -8h-69q-20 0 -36.5 13t-34.5 28t-38.5 32.5t-32.5 27.5t-18.5 22t0 21t28.5 9h120q30 0 47 -26zM124 506h195q34 0 45.5 -15t15 -66.5t3.5 -188t-6 -192.5q-3 -17 -17 -30t-49.5 -15.5t-84.5 -2.5t-89 2.5t-54 15.5t-16 30
q-7 65 -7 199.5t4 183.5t15 64t45 15z" />
    <glyph glyph-name="iacute" unicode="&#xed;" horiz-adv-x="443" 
d="M372 723q32 0 32 -19q0 -15 -17 -29t-37 -31q-46 -39 -76 -63q-14 -11 -34 -11h-69q-16 0 -21.5 8t3.5 21l52 98q17 26 47 26h120zM124 506h195q34 0 45.5 -15t15 -66.5t3.5 -188t-6 -192.5q-3 -17 -17 -30t-49.5 -15.5t-84.5 -2.5t-89 2.5t-54 15.5t-16 30
q-7 65 -7 199.5t4 183.5t15 64t45 15z" />
    <glyph glyph-name="icircumflex" unicode="&#xee;" horiz-adv-x="443" 
d="M124 506h195q34 0 45.5 -15t15 -66.5t3.5 -188t-6 -192.5q-3 -17 -17 -30t-49.5 -15.5t-84.5 -2.5t-89 2.5t-54 15.5t-16 30q-7 65 -7 199.5t4 183.5t15 64t45 15zM189 746h66q20 0 55 -30l117 -102q5 -8 5 -16q0 -30 -11.5 -43.5t-20 -13.5t-14.5 3l-164 74l-164 -74
q-6 -3 -14.5 -3t-19.5 13t-11.5 24t-0.5 19.5t5 16.5l117 102q35 30 55 30z" />
    <glyph glyph-name="idieresis" unicode="&#xef;" horiz-adv-x="443" 
d="M124 506h195q34 0 45.5 -15t15 -66.5t3.5 -188t-6 -192.5q-3 -17 -17 -30t-49.5 -15.5t-84.5 -2.5t-89 2.5t-54 15.5t-16 30q-7 65 -7 199.5t4 183.5t15 64t45 15zM18 704.5q29 26.5 76.5 26.5t70.5 -25.5t23 -59.5t-28 -61.5t-70 -27.5t-71.5 23t-29.5 60.5t29 64z
M284 704.5q29 26.5 76.5 26.5t70.5 -25.5t23 -59.5t-28 -61.5t-70 -27.5t-71.5 23t-29.5 60.5t29 64z" />
    <glyph glyph-name="eth" unicode="&#xf0;" 
d="M228 732l37 -1l13 32q8 19 14.5 23t15 4t24.5 -4l19 -7q29 -11 29 -35q0 -12 -7 -26q193 -38 294.5 -154.5t101.5 -271.5q0 -165 -93 -244q-82 -70 -263 -70q-373 0 -373 259q0 122 91 192.5t266 73.5q-33 41 -81 67l-8 -21q-8 -19 -14.5 -22.5t-15 -3.5t-25.5 4l-17 6
q-30 13 -30 35q0 10 5 20l6 17l-37 6q-32 3 -32 23t19.5 52.5t30.5 39t30 6.5zM413 138q51 0 51 108q0 92 -52 92q-35 0 -47 -25t-12 -72.5t12 -75t48 -27.5z" />
    <glyph glyph-name="ntilde" unicode="&#xf1;" horiz-adv-x="866" 
d="M529 554q-34 0 -77.5 29.5t-63 29.5t-30.5 -9.5t-22 -32.5q-9 -9 -19 -9h-64q-13 0 -13 23q0 73 43.5 114t115.5 41q34 0 77.5 -29.5t63 -29.5t30.5 9.5t22 32.5q9 9 19 9h64q13 0 13 -23q0 -73 -43.5 -114t-115.5 -41zM494 43l1 244q0 30 -15 45t-37.5 15t-41 -15.5
t-18.5 -43.5v-61q0 -132 -6 -180q-3 -17 -17 -30t-49.5 -15.5t-70.5 -2.5t-119 4q-24 1 -38 14t-16 30q-7 65 -7 199t4 183.5t15 64.5t45 15h195q34 0 45.5 -15t14.5 -51v-1q77 80 187.5 80t173.5 -54t64.5 -149t1.5 -170t-1 -101t-13.5 -37.5t-48.5 -11.5l-192 -2
q-32 0 -44.5 11.5t-12.5 34.5z" />
    <glyph glyph-name="ograve" unicode="&#xf2;" 
d="M410 697l52 -98q9 -13 3.5 -21t-21.5 -8h-69q-20 0 -34 11l-108 90q-31 26 -19 43q7 9 29 9h120q30 0 47 -26zM413 138q59 0 59 112q0 51 -12 78.5t-47 27.5t-47 -27.5t-12 -78.5q0 -112 59 -112zM413 -22q-373 0 -373 272q0 129 95 200t278 71t278 -71t95 -200
q0 -272 -373 -272z" />
    <glyph glyph-name="oacute" unicode="&#xf3;" 
d="M365 599l52 98q17 26 47 26h120q22 0 28.5 -9t0 -21t-18.5 -22t-32 -27q-46 -39 -76 -63q-14 -11 -34 -11h-69q-16 0 -21.5 8t3.5 21zM413 138q59 0 59 112q0 51 -12 78.5t-47 27.5t-47 -27.5t-12 -78.5q0 -112 59 -112zM413 -22q-373 0 -373 272q0 129 95 200t278 71
t278 -71t95 -200q0 -272 -373 -272z" />
    <glyph glyph-name="ocircumflex" unicode="&#xf4;" 
d="M413 138q59 0 59 112q0 51 -12 78.5t-47 27.5t-47 -27.5t-12 -78.5q0 -112 59 -112zM413 -22q-373 0 -373 272q0 129 95 200t278 71t278 -71t95 -200q0 -272 -373 -272zM380 745h66q20 0 55 -30l117 -102q5 -8 5 -17q0 -29 -11.5 -42.5t-20 -13.5t-14.5 3l-164 74
l-164 -74q-6 -3 -14.5 -3t-19.5 13t-11.5 24t-0.5 19.5t5 16.5l117 102q35 30 55 30z" />
    <glyph glyph-name="otilde" unicode="&#xf5;" 
d="M484 554q-34 0 -77.5 29.5t-63 29.5t-30.5 -9.5t-22 -32.5q-9 -9 -19 -9h-64q-13 0 -13 23q0 73 43.5 114t115.5 41q34 0 77.5 -29.5t63 -29.5t30.5 9.5t22 32.5q9 9 19 9h64q13 0 13 -23q0 -73 -43.5 -114t-115.5 -41zM413 138q59 0 59 112q0 51 -12 78.5t-47 27.5
t-47 -27.5t-12 -78.5q0 -112 59 -112zM413 -22q-373 0 -373 272q0 129 95 200t278 71t278 -71t95 -200q0 -272 -373 -272z" />
    <glyph glyph-name="odieresis" unicode="&#xf6;" 
d="M413 138q59 0 59 112q0 51 -12 78.5t-47 27.5t-47 -27.5t-12 -78.5q0 -112 59 -112zM413 -22q-373 0 -373 272q0 129 95 200t278 71t278 -71t95 -200q0 -272 -373 -272zM209 705.5q29 26.5 76.5 26.5t70.5 -25.5t23 -59.5t-28 -61.5t-70 -27.5t-71.5 23t-29.5 60.5t29 64
zM475 705.5q29 26.5 76.5 26.5t70.5 -25.5t23 -59.5t-28 -61.5t-70 -27.5t-71.5 23t-29.5 60.5t29 64z" />
    <glyph glyph-name="divide" unicode="&#xf7;" horiz-adv-x="801" 
d="M340 639.5q29 26.5 76.5 26.5t70.5 -25.5t23 -59.5t-28 -61.5t-70 -27.5t-71.5 23t-29.5 60.5t29 64zM340 188.5q29 26.5 76.5 26.5t70.5 -25.5t23 -59.5t-28 -61.5t-70 -27.5t-71.5 23t-29.5 60.5t29 64zM721 363v-21q0 -46 -18.5 -60.5t-54.5 -14.5h-497
q-35 0 -52.5 14t-18.5 60v22q0 46 18.5 60.5t54.5 14.5h497q35 0 52.5 -14t18.5 -61z" />
    <glyph glyph-name="oslash" unicode="&#xf8;" 
d="M635 598q15 0 22 -11t7 -22t-39 -79q161 -66 161 -236q0 -272 -373 -272q-31 0 -85 4l-36 -60q-25 -37 -60 -37h-49q-15 0 -22 11t-7 22t45 92q-159 60 -159 240q0 129 95 200t278 71q48 0 84 -4l28 44q26 37 61 37h49zM413 138q59 0 59 112q0 51 -12 78.5t-47 27.5
t-47 -27.5t-12 -78.5q0 -112 59 -112z" />
    <glyph glyph-name="ugrave" unicode="&#xf9;" horiz-adv-x="866" 
d="M438 697l52 -98q9 -13 3.5 -21t-21.5 -8h-69q-20 0 -36.5 13t-34.5 28t-38.5 32.5t-32.5 27.5t-18.5 22t0 21t28.5 9h120q30 0 47 -26zM372 465l-1 -244q0 -29 13 -44t33.5 -15t39 15.5t26.5 42.5v61q0 132 6 180q3 17 17 30t49.5 15.5t70.5 2.5t119 -4q24 -1 38 -14
t16 -30q7 -65 7 -199.5t-4 -183.5t-15 -64t-45 -15h-195q-34 0 -45.5 15t-14.5 51v1q-103 -79 -209 -79t-160.5 52.5t-56 148.5t-1.5 171t1 101t13.5 37.5t48.5 11.5l192 2q32 0 44.5 -11.5t12.5 -34.5z" />
    <glyph glyph-name="uacute" unicode="&#xfa;" horiz-adv-x="866" 
d="M386 599l52 98q17 26 47 26h120q22 0 28.5 -9t0 -21t-18.5 -22t-33 -27q-45 -39 -75 -63q-14 -11 -34 -11h-69q-16 0 -21.5 8t3.5 21zM372 465l-1 -244q0 -29 13 -44t33.5 -15t39 15.5t26.5 42.5v61q0 132 6 180q3 17 17 30t49.5 15.5t70.5 2.5t119 -4q24 -1 38 -14
t16 -30q7 -65 7 -199.5t-4 -183.5t-15 -64t-45 -15h-195q-34 0 -45.5 15t-14.5 51v1q-103 -79 -209 -79t-160.5 52.5t-56 148.5t-1.5 171t1 101t13.5 37.5t48.5 11.5l192 2q32 0 44.5 -11.5t12.5 -34.5z" />
    <glyph glyph-name="ucircumflex" unicode="&#xfb;" horiz-adv-x="866" 
d="M372 465l-1 -244q0 -29 13 -44t33.5 -15t39 15.5t26.5 42.5v61q0 132 6 180q3 17 17 30t49.5 15.5t70.5 2.5t119 -4q24 -1 38 -14t16 -30q7 -65 7 -199.5t-4 -183.5t-15 -64t-45 -15h-195q-34 0 -45.5 15t-14.5 51v1q-103 -79 -209 -79t-160.5 52.5t-56 148.5t-1.5 171
t1 101t13.5 37.5t48.5 11.5l192 2q32 0 44.5 -11.5t12.5 -34.5zM409 746h66q20 0 55 -30l117 -102q5 -8 5 -16q0 -30 -11.5 -43.5t-20 -13.5t-14.5 3l-164 74l-164 -74q-6 -3 -14.5 -3t-19.5 13t-11.5 24t-0.5 19.5t5 16.5l117 102q35 30 55 30z" />
    <glyph glyph-name="udieresis" unicode="&#xfc;" horiz-adv-x="866" 
d="M372 465l-1 -244q0 -29 13 -44t33.5 -15t39 15.5t26.5 42.5v61q0 132 6 180q3 17 17 30t49.5 15.5t70.5 2.5t119 -4q24 -1 38 -14t16 -30q7 -65 7 -199.5t-4 -183.5t-15 -64t-45 -15h-195q-34 0 -45.5 15t-14.5 51v1q-103 -79 -209 -79t-160.5 52.5t-56 148.5t-1.5 171
t1 101t13.5 37.5t48.5 11.5l192 2q32 0 44.5 -11.5t12.5 -34.5zM235 704.5q29 26.5 76.5 26.5t70.5 -25.5t23 -59.5t-28 -61.5t-70 -27.5t-71.5 23t-29.5 60.5t29 64zM501 704.5q29 26.5 76.5 26.5t70.5 -25.5t23 -59.5t-28 -61.5t-70 -27.5t-71.5 23t-29.5 60.5t29 64z" />
    <glyph glyph-name="yacute" unicode="&#xfd;" horiz-adv-x="768" 
d="M398 597l52 98q17 26 47 26h120q22 0 28.5 -9t0 -21t-18.5 -22t-33 -27q-45 -39 -75 -63q-14 -11 -34 -11h-69q-16 0 -21.5 8t3.5 21zM132 -39q132 0 132 39q0 13 -16 39q-73 114 -216 393q-11 23 -11 36q0 41 41 41h220q32 0 48.5 -10t31.5 -38l93 -174q6 -12 17 -12
t17 12l96 199q9 20 21 22q4 0 15 1h105q14 0 20 -13q2 -6 2 -13.5t-7.5 -22t-75.5 -159.5t-103.5 -213t-50 -93t-38.5 -59.5t-46 -52t-55 -35.5q-58 -31 -148.5 -31t-119.5 15.5t-29 67.5q0 25 9.5 43t25.5 18h22z" />
    <glyph glyph-name="thorn" unicode="&#xfe;" horiz-adv-x="813" 
d="M65 -109q-5 238 -5 429t4 346q1 33 12.5 49t44.5 16h192q33 0 44.5 -15.5t15 -67.5t3.5 -184q0 -6 3 -9.5t9 1.5q70 66 170 66t162 -63.5t62 -200.5q0 -77 -20.5 -132.5t-57.5 -84.5q-69 -55 -163.5 -55t-148.5 62q-7 7 -10.5 4t-3.5 -9q0 -71 -6 -155q-2 -33 -13 -47.5
t-45 -14.5h-192q-33 0 -44.5 16t-12.5 49zM439 152q59 0 59 97.5t-59 97.5q-23 0 -41.5 -15.5t-18.5 -43.5v-77q0 -28 18.5 -43.5t41.5 -15.5z" />
    <glyph glyph-name="ydieresis" unicode="&#xff;" horiz-adv-x="768" 
d="M132 -39q132 0 132 39q0 13 -16 39q-73 114 -216 393q-11 23 -11 36q0 41 41 41h220q32 0 48.5 -10t31.5 -38l93 -174q6 -12 17 -12t17 12l96 199q9 20 21 22q4 0 15 1h105q14 0 20 -13q2 -6 2 -13.5t-7.5 -22t-75.5 -159.5t-103.5 -213t-50 -93t-38.5 -59.5t-46 -52
t-55 -35.5q-58 -31 -148.5 -31t-119.5 15.5t-29 67.5q0 25 9.5 43t25.5 18h22zM261 703.5q29 26.5 76.5 26.5t70.5 -25.5t23 -59.5t-28 -61.5t-70 -27.5t-71.5 23t-29.5 60.5t29 64zM527 703.5q29 26.5 76.5 26.5t70.5 -25.5t23 -59.5t-28 -61.5t-70 -27.5t-71.5 23
t-29.5 60.5t29 64z" />
    <glyph glyph-name="hbar" unicode="&#x127;" horiz-adv-x="866" 
d="M67 650l1 16q1 33 12.5 49t44.5 16h192q33 0 44.5 -15.5t12.5 -37.5t2 -28h34q24 0 36 -11t12 -50.5t-11.5 -50.5t-37.5 -11h-30q0 -55 1 -84q78 79 187.5 79t172.5 -54t64.5 -149t1.5 -170t-1 -101t-13.5 -37.5t-48.5 -11.5l-192 -2q-32 0 -44.5 11.5t-12.5 34.5l1 244
q0 30 -15 45t-37.5 15t-40.5 -15.5t-19 -43.5l-6 -241q-1 -19 -18 -32t-41.5 -15t-54.5 -2l-140 2q-19 0 -37.5 13.5t-18.5 33.5l-2 327v154h-19q-26 0 -37.5 11t-11.5 50.5t11.5 50t36.5 10.5h22z" />
    <glyph glyph-name="Itilde" unicode="&#x128;" horiz-adv-x="544" 
d="M355 745q-45 0 -104 35.5t-84.5 35.5t-40.5 -12.5t-28 -43.5q-6 -11 -16 -11l-53 3q-10 3 -12.5 8t-2.5 18q0 99 48 154.5t129 55.5q45 0 104 -35.5t84.5 -35.5t40.5 12.5t28 43.5q6 11 16 11l53 -3q10 -3 12.5 -8t2.5 -18q0 -99 -48 -154.5t-129 -55.5zM138 700h268
q42 0 55.5 -21t18 -86.5t4.5 -254t-8 -276.5q-3 -23 -20.5 -41t-46.5 -20q-57 -4 -132 -4t-142 4q-29 2 -46.5 20t-20.5 41q-8 88 -8 276.5t4.5 254t18 86.5t55.5 21z" />
    <glyph glyph-name="itilde" unicode="&#x129;" horiz-adv-x="443" 
d="M284 554q-34 0 -77.5 29.5t-63 29.5t-30.5 -9.5t-22 -32.5q-9 -9 -19 -9h-64q-13 0 -13 23q0 73 43.5 114t115.5 41q34 0 77.5 -29.5t63 -29.5t30.5 9.5t22 32.5q9 9 19 9h64q13 0 13 -23q0 -73 -43.5 -114t-115.5 -41zM124 506h195q34 0 45.5 -15t15 -66.5t3.5 -188
t-6 -192.5q-3 -17 -17 -30t-49.5 -15.5t-84.5 -2.5t-89 2.5t-54 15.5t-16 30q-7 65 -7 199.5t4 183.5t15 64t45 15z" />
    <glyph glyph-name="dotlessi" unicode="&#x131;" horiz-adv-x="443" 
d="M124 506h195q34 0 45.5 -15t15 -66.5t3.5 -188t-6 -192.5q-3 -17 -17 -30t-49.5 -15.5t-84.5 -2.5t-89 2.5t-54 15.5t-16 30q-7 65 -7 199.5t4 183.5t15 64t45 15z" />
    <glyph glyph-name="IJ" unicode="&#x132;" horiz-adv-x="1184" 
d="M138 700h268q42 0 55.5 -21t18 -86.5t4.5 -254t-8 -276.5q-3 -23 -20.5 -41t-46.5 -20q-57 -4 -132 -4t-142 4q-29 2 -46.5 20t-20.5 41q-8 88 -8 276.5t4.5 254t18 86.5t55.5 21zM712 273l-3 308q0 45 1 58q1 32 15.5 46.5t56.5 14.5h268q42 0 56.5 -14.5t15.5 -46.5
q2 -63 2 -151.5t-4 -214.5q-3 -195 -200 -257q-115 -36 -293 -36q-40 0 -53 24t-13 83.5t46 64.5q56 7 80.5 47.5t24.5 73.5z" />
    <glyph glyph-name="ij" unicode="&#x133;" horiz-adv-x="884" 
d="M124 506h195q34 0 45.5 -15t15 -66.5t3.5 -188t-6 -192.5q-3 -17 -17 -30t-49.5 -15.5t-84.5 -2.5t-89 2.5t-54 15.5t-16 30q-7 65 -7 199.5t4 183.5t15 64t45 15zM232 742q66 0 99.5 -26.5t33.5 -72.5q0 -108 -144 -108q-58 0 -99 25t-41 75q0 107 151 107zM824 252
l-4 -193q0 -138 -111 -188q-99 -45 -278 -45q-32 0 -42.5 19.5t-10.5 67t37 51.5q92 11 92 98l-1 378q0 34 12 50t47 16h195q35 0 46.5 -15.5t13.5 -50.5q4 -85 4 -188zM673 742q66 0 99.5 -26.5t33.5 -72.5q0 -108 -144 -108q-58 0 -99 25t-41 75q0 107 151 107z" />
    <glyph glyph-name="Jcircumflex" unicode="&#x134;" horiz-adv-x="659" 
d="M357 942h66q20 0 55 -30l117 -102q5 -8 5 -16q0 -30 -11.5 -43.5t-20 -13.5t-14.5 3l-164 74l-164 -74q-6 -3 -14.5 -3t-19.5 13t-12 32t5 28l117 102q35 30 55 30zM185 273l-3 308q0 45 1 58q1 32 15.5 46.5t56.5 14.5h268q42 0 56.5 -14.5t15.5 -46.5q2 -63 2 -151.5
t-4 -214.5q-3 -195 -201 -257q-114 -36 -292 -36q-40 0 -53 24t-13 83.5t46 64.5q56 7 80.5 47.5t24.5 73.5z" />
    <glyph glyph-name="jcircumflex" unicode="&#x135;" horiz-adv-x="456" 
d="M204 746h66q20 0 55 -30l117 -102q5 -8 5 -16q0 -30 -11.5 -43.5t-20 -13.5t-14.5 3l-164 74l-164 -74q-6 -3 -14.5 -3t-19.5 13t-12 32t5 28l117 102q35 30 55 30zM396 252l-4 -193q0 -138 -111 -188q-99 -45 -278 -45q-32 0 -42.5 19.5t-10.5 67t37 51.5q92 11 92 98
l-1 378q0 34 12 50t47 16h195q35 0 46.5 -15.5t13.5 -50.5q4 -85 4 -188z" />
    <glyph glyph-name="kcommaaccent" unicode="&#x137;" horiz-adv-x="851" 
d="M646 -1l-110 1q-38 0 -53 23l-93 148q-8 6 -9.5 4.5t-2 -34t-5.5 -98.5q-2 -16 -16 -29t-47.5 -15t-81 -2t-105.5 3q-24 1 -37.5 13.5t-15.5 29.5q-10 122 -10 326t8 297q3 34 13.5 49.5t43.5 15.5h192q33 0 44 -15.5t14 -49.5q6 -87 6 -292q0 -23 8 -23q5 0 11 6
l131 120q17 15 28 19.5t31 4.5h146q13 0 19 -17q2 -4 2 -12t-10 -18l-139 -122q-8 -8 0 -17q95 -112 202 -262q11 -15 11 -27q0 -25 -37 -25zM268.5 -199q-11.5 16 -11.5 28t11 16q65 22 74 73q4 22 8 28q13 19 57 19h49q43 0 43 -38q0 -28 -24.5 -61t-82.5 -57t-102 -24
q-10 0 -21.5 16z" />
    <glyph glyph-name="kgreenlandic" unicode="&#x138;" horiz-adv-x="851" 
d="M652 -2l-119 2q-37 2 -50 23l-90 125q-5 6 -9.5 4.5t-5 -18.5t-5.5 -91q-2 -16 -16 -29t-41.5 -14.5t-95.5 -1.5t-93 2q-59 2 -63 44q-7 65 -7 199.5t4 183.5t15 64t45 15h195q34 0 47 -14.5t13 -43.5v-92q0 -16 9 -16q5 0 9 7q49 83 119.5 131t154.5 48q48 0 84 -29
t36 -73.5t-24 -73.5t-64 -29q-23 0 -47.5 15.5t-33.5 15.5q-35 0 -60 -36q108 -99 239 -250q15 -19 15 -34q0 -31 -42.5 -32.5t-118.5 -1.5z" />
    <glyph glyph-name="Ldotaccent" unicode="&#x13f;" horiz-adv-x="875" 
d="M631.5 446q35.5 34 95.5 34t89 -33t29 -76.5t-35 -79t-87.5 -35.5t-89.5 29.5t-37 78t35.5 82.5zM477 459l-1 -200q0 -44 13.5 -65.5t56.5 -21.5h253q46 -1 46 -70q0 -53 -13 -77t-53 -25q-141 -4 -279 -4t-352 2q-36 0 -58.5 17.5t-25.5 48.5q-8 87 -8 274.5t4.5 253
t18.5 87t55 21.5h268q42 0 55.5 -22t16.5 -71t3 -148z" />
    <glyph glyph-name="ldot" unicode="&#x140;" horiz-adv-x="689" 
d="M470.5 445q35.5 34 95.5 34t89 -33t29 -76.5t-35 -79t-87.5 -35.5t-89.5 29.5t-37 78t35.5 82.5zM125 731h192q33 0 44 -15.5t14 -49.5q6 -120 6 -331.5t-8 -291.5q-2 -16 -16 -29t-49.5 -15.5t-83.5 -2.5t-86 2q-65 5 -68 45q-10 87 -10 308.5t8 314.5q3 34 13.5 49.5
t43.5 15.5z" />
    <glyph glyph-name="Lslash" unicode="&#x141;" horiz-adv-x="858" 
d="M14 255q-23 0 -23 46.5t11.5 60t37.5 18.5l16 3q0 154 4.5 214t18.5 81.5t55 21.5h268q42 0 55.5 -22t16.5 -69.5t3 -138.5l24 5q13 2 23 1q24 -1 24 -47t-11.5 -59.5t-37.5 -18.5l-23 -5v-87q0 -44 13.5 -65.5t56.5 -21.5h253q46 -1 46 -70q0 -53 -13 -77t-53 -25
q-141 -4 -279 -4t-352 2q-36 0 -58.5 17.5t-25.5 48.5q-8 88 -8 196l-18 -3q-13 -2 -24 -2z" />
    <glyph glyph-name="lslash" unicode="&#x142;" horiz-adv-x="441" 
d="M4 255q-23 0 -23 46.5t11.5 60t37.5 18.5l30 6q0 194 5.5 254t16 75.5t43.5 15.5h192q33 0 44 -15.5t14 -49.5q3 -76 5 -215l37 8q13 2 23 1q24 -1 24 -47t-11.5 -59.5t-37.5 -18.5l-34 -7q0 -195 -8 -285q-2 -16 -16 -29t-49.5 -15.5t-83.5 -2.5t-86 2q-65 5 -68 45
q-8 76 -10 220l-32 -6q-13 -2 -24 -2z" />
    <glyph glyph-name="Nacute" unicode="&#x143;" horiz-adv-x="965" 
d="M628 758h-271q-25 0 -25 27t14.5 32.5t56 21.5t68.5 26q107 40 129.5 40t34.5 -22q40 -81 40 -96q0 -29 -47 -29zM738 700h107q34 0 47.5 -11t14.5 -45q6 -152 6 -327t-7 -256q-2 -23 -17.5 -42t-40.5 -19h-167q-35 0 -77 25q-232 137 -292 167q-12 5 -19.5 -3.5
t-7.5 -31.5v-111q0 -19 -14 -30q-21 -17 -108 -17q-24 0 -47 1.5t-37.5 20.5t-15.5 41q-3 120 -3 301.5t1 236.5t13 77.5t46 22.5h110q34 0 70 -19q310 -161 362 -187q17 -8 27 -2t10 22v140q0 20 10.5 33t28.5 13z" />
    <glyph glyph-name="nacute" unicode="&#x144;" horiz-adv-x="866" 
d="M392 599l52 98q17 26 47 26h120q22 0 28.5 -9t0 -21t-18.5 -22t-33 -27q-45 -39 -75 -63q-14 -11 -34 -11h-69q-16 0 -21.5 8t3.5 21zM494 43l1 244q0 30 -15 45t-37.5 15t-41 -15.5t-18.5 -43.5v-61q0 -132 -6 -180q-3 -17 -17 -30t-49.5 -15.5t-70.5 -2.5t-119 4
q-24 1 -38 14t-16 30q-7 65 -7 199t4 183.5t15 64.5t45 15h195q34 0 45.5 -15t14.5 -51v-1q77 80 187.5 80t173.5 -54t64.5 -149t1.5 -170t-1 -101t-13.5 -37.5t-48.5 -11.5l-192 -2q-32 0 -44.5 11.5t-12.5 34.5z" />
    <glyph glyph-name="OE" unicode="&#x152;" horiz-adv-x="1428" 
d="M543 -20q-121 0 -219 31.5t-159 84.5t-93 118.5t-32 136.5t32.5 136.5t93 118.5t158.5 85t210.5 32t196.5 -25q71 2 584 2q59 0 59 -75q0 -59 -52 -59h-220q-21 0 -33.5 -14t-12.5 -36v-72q0 -30 27 -30h182q16 0 24.5 -3t15.5 -17.5t7 -47.5t-11.5 -44t-37.5 -11h-163
q-25 0 -34.5 -12.5t-9.5 -38.5v-49q0 -43 41 -43h249q18 0 32 -10.5t14 -46t-17 -63.5t-40 -28h-617q-12 0 -24 3q-69 -20 -151 -23zM640 278l1 175q0 19 -7.5 26.5t-30.5 7.5q-71 0 -111 -37.5t-40 -90t43.5 -84.5t102.5 -32q42 0 42 35z" />
    <glyph glyph-name="oe" unicode="&#x153;" horiz-adv-x="1164" 
d="M413 -22q-373 0 -373 272q0 129 95 200t278 71q131 0 221 -39q82 39 177 39t160 -17.5t97 -47.5q56 -55 56 -129q0 -116 -196 -116q-69 0 -143 13v-1q3 -65 24.5 -92t76.5 -27t91 12t58 24.5t37.5 12.5t26.5 -14q17 -18 17 -49.5t-12.5 -43t-39.5 -22.5q-95 -40 -270 -40
q-90 0 -163 28q-88 -34 -218 -34zM413 138q59 0 59 112q0 51 -12 78.5t-47 27.5t-47 -27.5t-12 -78.5q0 -112 59 -112zM852 407q-61 0 -66 -99q48 -4 50 -4q66 0 66 44q0 59 -50 59z" />
    <glyph glyph-name="Racute" unicode="&#x154;" horiz-adv-x="915" 
d="M596 758h-271q-25 0 -25 27t14.5 32.5t56 21.5t68.5 26q107 40 129.5 40t34.5 -22q40 -81 40 -96q0 -29 -47 -29zM472 491l2 -185q0 -19 21 -19q62 0 97.5 34.5t35.5 81.5t-33.5 81t-98.5 34q-24 0 -24 -27zM734 192q19 -20 135 -151q7 -9 7 -16q0 -26 -23 -26
q-53 -1 -106.5 -1t-106.5 1q-29 0 -53 23l-86 130q-5 6 -12 8q-16 6 -16 -13v-102q0 -43 -56.5 -46t-123.5 -3t-162 5q-29 2 -46.5 20t-20.5 41q-8 88 -8 276.5t6 274.5t87 87q76 1 207 1t217 -2q124 -2 203 -92t79 -203q0 -66 -30.5 -122t-90.5 -90z" />
    <glyph glyph-name="Rcommaaccent" unicode="&#x156;" horiz-adv-x="915" 
d="M472 491l2 -185q0 -19 21 -19q62 0 97.5 34.5t35.5 81.5t-33.5 81t-98.5 34q-24 0 -24 -27zM734 192q19 -20 135 -151q7 -9 7 -16q0 -26 -23 -26q-53 -1 -106.5 -1t-106.5 1q-29 0 -53 23l-86 130q-5 6 -12 8q-16 6 -16 -13v-102q0 -43 -56.5 -46t-123.5 -3t-162 5
q-29 2 -46.5 20t-20.5 41q-8 88 -8 276.5t6 274.5t87 87q76 1 207 1t217 -2q124 -2 203 -92t79 -203q0 -66 -30.5 -122t-90.5 -90zM375.5 -199q-11.5 16 -11.5 28t11 16q65 22 74 73q4 22 8 28q13 19 57 19h49q43 0 43 -38q0 -28 -24.5 -61t-82.5 -57t-102 -24
q-10 0 -21.5 16z" />
    <glyph glyph-name="rcommaaccent" unicode="&#x157;" horiz-adv-x="657" 
d="M124 509h195q34 0 47 -14.5t13 -43.5v-36q56 106 182 106q42 0 69 -27t27 -72t-24 -89.5t-67 -44.5q-20 0 -56 20.5t-58 20.5t-45.5 -16t-23.5 -53q0 -161 -6 -213q-3 -17 -17 -30t-49.5 -15.5t-70.5 -2.5t-119 4q-24 1 -38 14t-16 30q-7 65 -7 199t4 183.5t15 64.5
t45 15zM89.5 -200q-11.5 16 -11.5 28t11 16q65 22 74 73q4 22 8 28q13 19 57 19h49q43 0 43 -38q0 -28 -24.5 -61t-82.5 -57t-102 -24q-10 0 -21.5 16z" />
    <glyph glyph-name="Rcaron" unicode="&#x158;" horiz-adv-x="915" 
d="M508 759h-66q-20 0 -55 30l-117 102q-6 9 -5 28t12 32t19.5 13t14.5 -3l164 -74l164 74q6 3 14.5 3t19.5 -13t12 -32t-5 -28l-117 -102q-35 -30 -55 -30zM480 491l2 -185q0 -19 21 -19q62 0 97.5 34.5t35.5 81.5t-33.5 81t-98.5 34q-24 0 -24 -27zM742 192
q19 -20 135 -151q7 -9 7 -16q0 -26 -23 -26q-53 -1 -106.5 -1t-106.5 1q-29 0 -53 23l-86 130q-5 6 -12 8q-16 6 -16 -13v-102q0 -43 -56.5 -46t-123.5 -3t-162 5q-29 2 -46.5 20t-20.5 41q-8 88 -8 276.5t6 274.5t87 87q76 1 207 1t217 -2q124 -2 203 -92t79 -203
q0 -66 -30.5 -122t-90.5 -90z" />
    <glyph glyph-name="rcaron" unicode="&#x159;" horiz-adv-x="657" 
d="M385 547h-66q-20 0 -55 30l-117 102q-6 9 -5 28t12 32t19.5 13t14.5 -3l164 -74l164 74q6 3 14.5 3t19.5 -13t12 -32t-5 -28l-117 -102q-35 -30 -55 -30zM124 509h195q34 0 47 -14.5t13 -43.5v-36q56 106 182 106q42 0 69 -27t27 -72t-24 -89.5t-67 -44.5q-20 0 -56 20.5
t-58 20.5t-45.5 -16t-23.5 -53q0 -161 -6 -213q-3 -17 -17 -30t-49.5 -15.5t-70.5 -2.5t-119 4q-24 1 -38 14t-16 30q-7 65 -7 199t4 183.5t15 64.5t45 15z" />
    <glyph glyph-name="Scaron" unicode="&#x160;" horiz-adv-x="809" 
d="M209.5 -1q-74.5 19 -105 38t-40.5 27q-26 21 -26 58q0 29 7 55q13 49 47 49q11 -1 70.5 -23t93.5 -22q51 0 51 40q0 24 -25 44.5t-60.5 39.5t-71.5 43.5t-61 68t-25 101.5q0 96 94 150.5t243 54.5t236.5 -30.5t87.5 -84.5q0 -39 -18 -68.5t-38 -29.5q-7 0 -46.5 15.5
t-71.5 15.5q-63 0 -63 -49q0 -24 30 -44t72.5 -38.5t85.5 -41.5t73 -63t30 -97t-36.5 -104t-96.5 -73q-119 -51 -276 -51q-86 0 -160.5 19zM427 759h-66q-20 0 -55 30l-117 102q-5 8 -5 17q0 29 11.5 42.5t20 13.5t14.5 -3l164 -74l164 74q6 3 14.5 3t19.5 -13t11.5 -24
t0.5 -19.5t-5 -16.5l-117 -102q-35 -30 -55 -30z" />
    <glyph glyph-name="scaron" unicode="&#x161;" horiz-adv-x="650" 
d="M280 131q0 28 -23.5 44t-57 24.5t-67.5 20t-57.5 40t-23.5 75.5q0 186 289 186q124 0 199 -42q24 -13 34 -24.5t10 -40.5t-11.5 -43.5t-23 -14.5t-50 22.5t-79.5 23.5q-33 0 -33 -33q0 -22 23 -35t56 -22.5t66 -23t56 -45t23 -79.5q0 -186 -289 -186q-141 0 -230 41
q-27 11 -39 22.5t-12 42t12.5 43.5t21 13t57.5 -22t99 -22t50 35zM360 547h-66q-20 0 -55 30l-117 102q-5 8 -5 17q0 29 11.5 42.5t20 13.5t14.5 -3l164 -74l164 74q6 3 14.5 3t19.5 -13t11.5 -24t0.5 -19.5t-5 -16.5l-117 -102q-35 -30 -55 -30z" />
    <glyph glyph-name="Ydieresis" unicode="&#x178;" horiz-adv-x="955" 
d="M887 700q20 0 20 -20q0 -13 -11 -28l-224 -355q0 -81 -5 -236q-1 -22 -19 -40.5t-48 -20.5q-57 -4 -137 -4t-147 4q-30 2 -48 20.5t-19 40.5q-2 101 -2 210l-202 339q-15 23 -15 38q0 50 49 50l342 2q29 0 43.5 -9t34.5 -37l61 -131q16 -22 26.5 -22t25.5 18l102 160
q17 21 43 21h130zM382 890.5q29 26.5 76.5 26.5t70.5 -25.5t23 -59.5t-28 -61.5t-70 -27.5t-71.5 23t-29.5 60.5t29 64zM648 890.5q29 26.5 76.5 26.5t70.5 -25.5t23 -59.5t-28 -61.5t-70 -27.5t-71.5 23t-29.5 60.5t29 64z" />
    <glyph glyph-name="Zcaron" unicode="&#x17d;" horiz-adv-x="844" 
d="M75 577v74q0 26 12.5 36.5t67 12t164.5 2.5t243 1h180q24 0 44.5 -13t20.5 -33v-82q0 -16 -5 -25l-6 -12q-1 -3 -7 -12l-8 -12q-93 -147 -215 -317q-12 -17 -8.5 -28.5t18.5 -11.5h191q21 0 32.5 -14.5t11.5 -31.5v-58q0 -52 -44 -54q-131 -3 -324 -3t-308 4
q-51 2 -74.5 13.5t-23.5 44.5v77q0 33 20 66q104 165 217 315q9 13 3 22t-23 9h-132q-20 0 -33.5 8.5t-13.5 21.5zM488 759h-66q-20 0 -55 30l-117 102q-5 8 -5 17q0 29 11.5 42.5t20 13.5t14.5 -3l164 -74l164 74q6 3 14.5 3t19.5 -13t11.5 -24t0.5 -19.5t-5 -16.5
l-117 -102q-35 -30 -55 -30z" />
    <glyph glyph-name="zcaron" unicode="&#x17e;" horiz-adv-x="679" 
d="M316 -4l-229 3q-17 0 -32 9t-15 24v59q0 25 15.5 41.5t56.5 59.5q90 94 137 152q9 11 6.5 20t-13.5 9h-148q-15 0 -23.5 10.5t-8.5 23.5v63q0 39 32 39q369 0 490 -1q17 0 32 -9t15 -24v-59q0 -23 -21.5 -48t-84 -90.5t-103.5 -114.5q-9 -11 -6.5 -20t13.5 -9h188
q15 0 23.5 -10.5t8.5 -23.5v-63q0 -39 -32 -39zM381 546h-66q-20 0 -55 30l-117 102q-5 8 -5 16q0 30 11.5 43.5t20 13.5t14.5 -3l164 -74l164 74q6 3 14.5 3t19.5 -13t11.5 -24t0.5 -19.5t-5 -16.5l-117 -102q-35 -30 -55 -30z" />
    <glyph glyph-name="florin" unicode="&#x192;" horiz-adv-x="636" 
d="M471 486q0 -14 19 -14h82q24 0 36 -11t12 -50.5t-11.5 -50.5t-37.5 -11h-100q-17 0 -19 -20q-15 -122 -38 -289q-18 -134 -128 -184q-96 -43 -244 -43q-55 0 -126 29q-35 14 -35 71q0 76 32 76q10 0 43.5 -11.5t50.5 -11.5q82 0 94 101l30 249q3 23 -0.5 28.5t-14.5 5.5
h-51q-26 0 -37.5 11t-11.5 50.5t11.5 50t36.5 10.5h74q16 0 16 15q22 158 138 211q94 42 242 42q82 0 148 -23q35 -12 35 -80.5t-32 -68.5q-14 0 -50 9.5t-61 9.5q-46 0 -72.5 -25.5t-30.5 -62.5v-13z" />
    <glyph glyph-name="circumflex" unicode="&#x2c6;" horiz-adv-x="563" 
d="M248 745h66q20 0 55 -30l117 -102q5 -8 5 -17q0 -29 -11.5 -42.5t-20 -13.5t-14.5 3l-164 74l-164 -74q-6 -3 -14.5 -3t-19.5 13t-11.5 24t-0.5 19.5t5 16.5l117 102q35 30 55 30z" />
    <glyph glyph-name="caron" unicode="&#x2c7;" horiz-adv-x="563" 
d="M346 722h-66q-20 0 -55 30l-117 102q-5 8 -5 16q0 30 11.5 43.5t20 13.5t14.5 -3l164 -74l164 74q6 3 14.5 3t19.5 -13t11.5 -24t0.5 -19.5t-5 -16.5l-117 -102q-35 -30 -55 -30z" />
    <glyph glyph-name="breve" unicode="&#x2d8;" horiz-adv-x="833" 
d="M602 792.5q-48 -52.5 -128.5 -52.5t-128 52.5t-47.5 145.5q0 12 3 17t12 8l52 3q11 0 16 -11q11 -25 18.5 -37t26.5 -24t47 -12t47.5 12t27 24t18.5 37q6 11 16 11l53 -3q9 -3 12 -8t3 -17q0 -93 -48 -145.5z" />
    <glyph glyph-name="dotaccent" unicode="&#x2d9;" horiz-adv-x="596" 
d="M217 890.5q29 26.5 76.5 26.5t70.5 -25.5t23 -59.5t-28 -61.5t-70 -27.5t-71.5 23t-29.5 60.5t29 64z" />
    <glyph glyph-name="ring" unicode="&#x2da;" horiz-adv-x="405" 
d="M203 743q-18 0 -27.5 -11t-9.5 -26t9.5 -26t27 -11t28 12t10.5 27t-10 25t-28 10zM303.5 621.5q-37.5 -43.5 -103 -43.5t-101 42.5t-35 92t36.5 89.5t100.5 40t101.5 -38t37.5 -88.5t-37 -94z" />
    <glyph glyph-name="ogonek" unicode="&#x2db;" horiz-adv-x="833" 
d="M445 -106l20 1q15 0 15 -49q0 -20 -95.5 -20t-95.5 73q0 27 21 54.5t57 47.5h66q-37 -40 -37 -72q0 -35 49 -35z" />
    <glyph glyph-name="tilde" unicode="&#x2dc;" horiz-adv-x="782" 
d="M456 554q-34 0 -77.5 29.5t-63 29.5t-30.5 -9.5t-22 -32.5q-9 -9 -19 -9h-64q-13 0 -13 23q0 73 43.5 114t115.5 41q34 0 77.5 -29.5t63 -29.5t30.5 9.5t22 32.5q9 9 19 9h64q13 0 13 -23q0 -73 -43.5 -114t-115.5 -41z" />
    <glyph glyph-name="hungarumlaut" unicode="&#x2dd;" horiz-adv-x="703" 
d="M84 735q-24 0 -24 14q0 6 6 15l99 148q17 26 47 26h120q31 -3 31 -18t-24 -37t-78 -69.5t-76 -67.5q-12 -10 -29 -11h-72zM364 735q-24 0 -24 14q0 6 6 15l99 148q17 26 47 26h120q31 -3 31 -18t-24 -37t-78 -69.5t-76 -67.5q-12 -10 -29 -11h-72z" />
    <glyph glyph-name="dotaccentcmb" unicode="&#x307;" horiz-adv-x="596" 
d="M217 890.5q29 26.5 76.5 26.5t70.5 -25.5t23 -59.5t-28 -61.5t-70 -27.5t-71.5 23t-29.5 60.5t29 64z" />
    <glyph glyph-name="Delta" unicode="&#x394;" horiz-adv-x="963" 
d="M309 629q18 34 62.5 53t96.5 19t95 -18t62 -52q147 -272 287 -564q9 -19 9 -34t-7 -26q-13 -25 -48 -25h-782q-35 0 -47 26q-5 11 -5 25t9 32q193 420 268 564zM297 136h135q11 0 13.5 6t2.5 9.5t-2 6.5l-53 137q-6 16 -22 16t-24 -16l-64 -137q-2 -3 -2 -6.5t2.5 -9.5
t13.5 -6z" />
    <glyph glyph-name="Delta" unicode="&#x2206;" horiz-adv-x="963" 
d="M309 629q18 34 62.5 53t96.5 19t95 -18t62 -52q147 -272 287 -564q9 -19 9 -34t-7 -26q-13 -25 -48 -25h-782q-35 0 -47 26q-5 11 -5 25t9 32q193 420 268 564zM297 136h135q11 0 13.5 6t2.5 9.5t-2 6.5l-53 137q-6 16 -22 16t-24 -16l-64 -137q-2 -3 -2 -6.5t2.5 -9.5
t13.5 -6z" />
    <glyph glyph-name="Omega" unicode="&#x3a9;" horiz-adv-x="1066" 
d="M606.5 489q-23.5 45 -74 45t-73.5 -45t-23 -110t12.5 -124t24 -79.5t20.5 -32.5q18 -24 18 -42q0 -4 -3 -33.5t-8 -41.5t-14 -18q-13 -8 -52 -9.5t-147.5 -1.5t-155 2t-59 29.5t-12.5 67t1.5 51t9.5 21.5t19.5 10t24 -2t52 -17t47.5 -15t8 8t-8 15q-61 43 -91.5 112.5
t-30.5 132.5t25.5 118t67.5 90t100 58.5t119 33t129 9.5t129 -9.5t119 -33t100 -58.5t67.5 -90t25.5 -118t-30.5 -132.5t-91.5 -112.5q-8 -7 -8 -15t8 -8t48 15q50 19 68.5 19t26.5 -10t9.5 -21.5t1.5 -51t-12.5 -67t-59 -29.5t-155 -2t-143 1.5t-41.5 3t-15 6.5
q-17 11 -21 50t-4 47t4.5 17t13.5 21t20.5 32.5t24 79.5t12.5 124t-23.5 110z" />
    <glyph glyph-name="Omega" unicode="&#x2126;" horiz-adv-x="1066" 
d="M606.5 489q-23.5 45 -74 45t-73.5 -45t-23 -110t12.5 -124t24 -79.5t20.5 -32.5q18 -24 18 -42q0 -4 -3 -33.5t-8 -41.5t-14 -18q-13 -8 -52 -9.5t-147.5 -1.5t-155 2t-59 29.5t-12.5 67t1.5 51t9.5 21.5t19.5 10t24 -2t52 -17t47.5 -15t8 8t-8 15q-61 43 -91.5 112.5
t-30.5 132.5t25.5 118t67.5 90t100 58.5t119 33t129 9.5t129 -9.5t119 -33t100 -58.5t67.5 -90t25.5 -118t-30.5 -132.5t-91.5 -112.5q-8 -7 -8 -15t8 -8t48 15q50 19 68.5 19t26.5 -10t9.5 -21.5t1.5 -51t-12.5 -67t-59 -29.5t-155 -2t-143 1.5t-41.5 3t-15 6.5
q-17 11 -21 50t-4 47t4.5 17t13.5 21t20.5 32.5t24 79.5t12.5 124t-23.5 110z" />
    <glyph glyph-name="pi" unicode="&#x3c0;" horiz-adv-x="1076" 
d="M565 144l-1 115q0 39 3 87q-10 -1 -61 -1q0 -69 -9 -132t-16.5 -92t-19.5 -47t-33 -38.5t-50 -31.5q-67 -26 -165 -26q-29 0 -54 24.5t-25 52.5t24.5 40t29.5 29q26 83 36 206q-18 -2 -41.5 -25t-44 -23t-34.5 12.5t-26.5 37.5t-12.5 46t13 41q33 50 121 76t157 26
t146 -3.5t132.5 -7t71 -3.5t35.5 1t37 4t28 5t24 7l18 6q5 1 16.5 6.5t20 9.5t28.5 4t39 -19q43 -46 43 -78q0 -20 -12 -41q-33 -58 -125 -70q-7 -55 -7 -106.5t-0.5 -64t0 -17.5t1.5 -14q5 -26 42 -7q13 7 18 7q19 0 42 -27.5t23 -50t-21.5 -40.5t-54.5 -27
q-62 -17 -122 -17q-121 0 -167.5 46t-46.5 120z" />
    <glyph glyph-name="endash" unicode="&#x2013;" horiz-adv-x="751" 
d="M641 194q-44 -6 -253.5 -6t-253.5 6q-28 2 -41 14t-13 42v15q0 30 13 42t41 14q44 6 253.5 6t253.5 -6q16 -2 23 -14t7 -43v-15q0 -29 -7 -41t-23 -14z" />
    <glyph glyph-name="emdash" unicode="&#x2014;" horiz-adv-x="1202" 
d="M601 187q-385 0 -467 6q-28 2 -41 14t-13 42v15q0 30 13 42t41 14q82 6 467 6t467 -6q28 -2 41 -14t13 -42v-15q0 -30 -13 -42t-41 -14q-82 -6 -467 -6z" />
    <glyph glyph-name="quoteleft" unicode="&#x2018;" horiz-adv-x="400" 
d="M333 664q-62 -32 -52 -60q5 -14 15 -28q33 -41 33 -86t-38.5 -74t-89.5 -29t-86 28.5t-35 81.5q0 89 68.5 157.5t158.5 68.5q10 0 21.5 -16t11.5 -27.5t-7 -15.5z" />
    <glyph glyph-name="quoteright" unicode="&#x2019;" horiz-adv-x="400" 
d="M67 446q62 32 52 60q-5 14 -15 28q-33 41 -33 86t38.5 74t89.5 29t86 -28.5t35 -81.5q0 -89 -68.5 -157.5t-158.5 -68.5q-10 0 -21.5 16t-11.5 27.5t7 15.5z" />
    <glyph glyph-name="quotesinglbase" unicode="&#x201a;" horiz-adv-x="400" 
d="M67 -66q62 32 52 60q-5 14 -15 28q-33 41 -33 86t38.5 74t89.5 29t86 -28.5t35 -81.5q0 -89 -68.5 -157.5t-158.5 -68.5q-10 0 -21.5 16t-11.5 27.5t7 15.5z" />
    <glyph glyph-name="quotedblleft" unicode="&#x201c;" horiz-adv-x="721" 
d="M654 664q-62 -32 -52 -60q5 -14 16 -28q32 -41 32 -86t-38.5 -74t-89.5 -29t-86 28.5t-35 81.5q0 89 68.5 157.5t158.5 68.5q10 0 21.5 -16t11.5 -27.5t-7 -15.5zM333 664q-62 -32 -52 -60q5 -14 15 -28q33 -41 33 -86t-38.5 -74t-89.5 -29t-86 28.5t-35 81.5
q0 89 68.5 157.5t158.5 68.5q10 0 21.5 -16t11.5 -27.5t-7 -15.5z" />
    <glyph glyph-name="quotedblright" unicode="&#x201d;" horiz-adv-x="721" 
d="M67 446q62 32 52 60q-5 14 -15 28q-33 41 -33 86t38.5 74t89.5 29t86 -28.5t35 -81.5q0 -89 -68.5 -157.5t-158.5 -68.5q-10 0 -21.5 16t-11.5 27.5t7 15.5zM388 446q62 32 52 60q-5 14 -16 28q-32 41 -32 86t38.5 74t89.5 29t86 -28.5t35 -81.5q0 -89 -68.5 -157.5
t-158.5 -68.5q-10 0 -21.5 16t-11.5 27.5t7 15.5z" />
    <glyph glyph-name="quotedblbase" unicode="&#x201e;" horiz-adv-x="721" 
d="M67 -66q62 32 52 60q-5 14 -15 28q-33 41 -33 86t38.5 74t89.5 29t86 -28.5t35 -81.5q0 -89 -68.5 -157.5t-158.5 -68.5q-10 0 -21.5 16t-11.5 27.5t7 15.5zM388 -66q62 32 52 60q-5 14 -16 28q-32 41 -32 86t38.5 74t89.5 29t86 -28.5t35 -81.5q0 -89 -68.5 -157.5
t-158.5 -68.5q-10 0 -21.5 16t-11.5 27.5t7 15.5z" />
    <glyph glyph-name="dagger" unicode="&#x2020;" horiz-adv-x="820" 
d="M515 466q111 38 193 38q11 0 18 -2.5t16 -13.5q18 -20 18 -89t-9 -98t-18.5 -34.5t-24.5 -5.5q-85 0 -201 41q-9 2 -14.5 -6t-0.5 -23q36 -104 38 -184v-5q0 -96 -53 -230q-9 -26 -64 -26h-7q-56 0 -66 26q-52 134 -52 225t39 199q3 13 -4.5 19.5t-17.5 1.5
q-111 -39 -193 -39q-38 0 -48 56q-4 26 -4 67.5t4.5 67.5t13.5 36.5t16 13t18 2.5q85 0 201 -41q10 -2 15 6q6 9 0 22q-38 110 -38 191q0 11 2.5 18t13.5 16q20 18 89 18t98 -9t34.5 -18.5t5.5 -24.5q0 -79 -38 -188v-3q-6 -14 1.5 -21.5t18.5 -2.5z" />
    <glyph glyph-name="daggerdbl" unicode="&#x2021;" horiz-adv-x="690" 
d="M401 -172q-22 -3 -61 -3t-62.5 7.5t-28 15.5t-4.5 20q0 63 31 153v2q4 11 -1.5 17.5t-14.5 2.5q-89 -31 -158 -31q-32 0 -38 42q-4 22 -4 61t7.5 62.5t15 28t19.5 4.5q52 0 164 -34q8 -2 13 5.5t0 16.5q-24 48 -24 80.5t24 82.5q5 9 0 16t-13 5q-112 -34 -164 -34
q-12 0 -19.5 4.5t-15 28.5t-7.5 63t3.5 60t10.5 30q12 12 28 12q69 0 158 -31q9 -3 14.5 3t1.5 17v2q-31 92 -31 154q0 12 4.5 19.5t28 15t62.5 7.5t61 -3.5t31 -11.5q13 -11 13 -27q0 -66 -31 -154v-2q-4 -11 1.5 -17t15.5 -3q88 31 157 31q18 0 26 -10q16 -20 16 -76
t-7 -79.5t-15 -28t-20 -4.5q-50 0 -164 34q-8 2 -12.5 -5t-0.5 -16q25 -52 25 -82.5t-25 -80.5q-4 -9 0.5 -16.5t12.5 -5.5q114 34 164 34q12 0 20 -4.5t15 -28t7 -62.5t-3.5 -60.5t-10.5 -30.5q-10 -12 -28 -12q-69 0 -157 31q-9 4 -15 -2t-2 -18v-2q31 -87 31 -153
q0 -32 -44 -40z" />
    <glyph glyph-name="bullet" unicode="&#x2022;" horiz-adv-x="717" 
d="M376 86q-140 0 -218 78.5t-78 186t78.5 187t210.5 79.5t200 -71.5t68 -172.5q0 -71 -29.5 -135t-90.5 -108t-141 -44z" />
    <glyph glyph-name="ellipsis" unicode="&#x2026;" horiz-adv-x="1370" 
d="M165.5 178q35.5 34 95.5 34t89 -33t29 -76.5t-35 -79t-87.5 -35.5t-89.5 29.5t-37 78t35.5 82.5zM595.5 178q35.5 34 95.5 34t89 -33t29 -76.5t-35 -79t-87.5 -35.5t-89.5 29.5t-37 78t35.5 82.5zM1026.5 178q35.5 34 95.5 34t89 -33t29 -76.5t-35 -79t-87.5 -35.5
t-89.5 29.5t-37 78t35.5 82.5z" />
    <glyph glyph-name="perthousand" unicode="&#x2030;" horiz-adv-x="1940" 
d="M1605 406q120 0 187.5 -60.5t67.5 -145.5q0 -83 -54 -143q-28 -31 -79.5 -49.5t-121.5 -18.5q-151 0 -216 82q-65 -82 -213 -82q-70 0 -122 18.5t-80 49.5q-55 59 -55 143.5t68 145t189 60.5q144 0 213 -88q71 88 216 88zM935 662q23 26 36 32t39 6h151q24 0 31 -18
q2 -5 2 -15t-25 -36.5t-234.5 -251t-325.5 -344.5q-22 -26 -35 -32t-40 -6h-151q-24 0 -31 19q-2 4 -2 14t14 25q182 188 571 607zM188 654.5q68 60.5 188.5 60.5t188 -60.5t67.5 -145.5q0 -83 -54 -143q-28 -31 -79.5 -49.5t-121.5 -18.5t-122 18.5t-81 49.5
q-54 59 -54 143.5t68 145zM1175 286q-36 0 -36 -88t36 -88t36 88t-36 88zM376 595q-36 0 -36 -88t36 -88t36 88t-36 88zM1604 286q-36 0 -36 -88t36 -88t36 88t-36 88z" />
    <glyph glyph-name="guilsinglleft" unicode="&#x2039;" horiz-adv-x="451" 
d="M60 201v46q0 26 21 44l204 175q14 12 23.5 12t16.5 -3q66 -36 66 -70q0 -12 -9 -23l-129 -158l129 -158q9 -11 9 -27t-22.5 -37t-37.5 -26.5t-24 -5.5t-16 7l-210 180q-21 18 -21 44z" />
    <glyph glyph-name="guilsinglright" unicode="&#x203a;" horiz-adv-x="451" 
d="M391 247v-46q0 -26 -21 -44l-210 -180q-7 -7 -16 -7t-24 5.5t-37.5 26.5t-22.5 37t9 27l129 158l-129 158q-9 11 -9 23q0 34 66 70q7 3 16.5 3t23.5 -12l204 -175q21 -18 21 -44z" />
    <glyph glyph-name="fraction" unicode="&#x2044;" horiz-adv-x="984" 
d="M665 662q23 26 36 32t39 6h131q24 0 31 -18q2 -5 2 -15t-25 -36.5t-234.5 -251t-325.5 -344.5q-22 -26 -35 -32t-40 -6h-131q-24 0 -31 19q-2 4 -2 14t14 25q182 188 571 607z" />
    <glyph glyph-name="foursuperior" unicode="&#x2074;" horiz-adv-x="577" 
d="M512 390q-10 -1 -13 -1q0 -25 -3 -42q-5 -36 -44.5 -38.5t-87 -2.5t-95.5 3q-17 1 -26.5 11t-11.5 23q-3 42 -3 46h-123q-64 2 -64 33l-1 26q0 23 11 37q88 117 178 210q9 7 27 7h195q27 0 35.5 -11.5t11.5 -44.5t3 -145v-22h11q12 0 18.5 -8t6.5 -18v-33q0 -30 -25 -30z
M229 553q-15 -16 -33 -38.5t-18 -25t3 -2.5h48v66z" />
    <glyph glyph-name="lira" unicode="&#x20a4;" horiz-adv-x="1037" 
d="M695 261q0 -31 -12.5 -40.5t-35.5 -9.5h-85q-6 -29 -26 -52q86 -34 176 -34t176 74q10 8 23.5 8t25.5 -17q18 -23 18 -73.5t-45 -84.5q-87 -63 -244 -63q-60 0 -150.5 34.5t-175.5 34.5q-53 0 -130 -30t-99 -30t-36.5 23.5t-14.5 54t16 53.5t48 25q73 4 78 77h-94
q-23 0 -34 9.5t-12 40.5q0 31 12.5 40.5t35.5 9.5h77l-12 42h-67q-23 0 -34 9.5t-12 40.5q0 31 12.5 40.5t35.5 9.5h37q-6 24 -6 41q0 229 341 229q171 0 292 -57q32 -15 45.5 -31.5t13.5 -58t-14.5 -60.5t-29 -21.5t-24.5 6.5q-33 28 -82.5 45t-85.5 17t-59.5 -22
t-23.5 -50t2 -38h133q23 0 34.5 -9.5t11.5 -40.5t-12.5 -40.5t-35.5 -9.5h-106q5 -14 13 -42h95q23 0 34.5 -9.5t11.5 -40.5z" />
    <glyph glyph-name="Euro" unicode="&#x20ac;" horiz-adv-x="822" 
d="M692 421q0 -31 -12.5 -40.5t-35.5 -9.5h-188q-1 -7 -1 -21t1 -21h190q23 0 34.5 -9.5t11.5 -40.5t-12.5 -40.5t-35.5 -9.5h-158q41 -70 117 -70q20 0 66 7q54 9 63 9q54 0 54 -86q0 -65 -49 -79q-79 -23 -242 -23q-338 0 -404 242h-35q-23 0 -34 9.5t-12 40.5
q0 31 12.5 40.5t35.5 9.5h19v42h-21q-23 0 -34 9.5t-12 40.5q0 31 12.5 40.5t35.5 9.5h34q34 124 137.5 182t266 58t241.5 -23q49 -14 49 -79q0 -86 -54 -86q-9 0 -59 8t-70 8q-74 0 -116 -68h159q23 0 34.5 -9.5t11.5 -40.5z" />
    <glyph glyph-name="afii61289" unicode="&#x2113;" horiz-adv-x="787" 
d="M118 142q-21 -6 -38 -6q-30 0 -30 54q0 35 22 43q1 0 36 8v222q0 68 28.5 121t75.5 84q97 63 217 63q110 0 193 -41q43 -22 68.5 -62t25.5 -94q0 -194 -293 -310q0 -78 119 -78q46 0 85.5 14.5t51.5 14.5q38 0 38 -78q0 -61 -37 -72q-111 -34 -246 -34q-202 0 -273 73
q-30 31 -43 78zM503 529q0 23 -12 35t-28.5 12t-28 -14.5t-11.5 -42.5v-125q80 67 80 135z" />
    <glyph glyph-name="trademark" unicode="&#x2122;" horiz-adv-x="1166" 
d="M817 616q9 -12 16 -12t21.5 23.5t21.5 33t15 19.5q16 22 30 22h134q26 0 36.5 -12t12.5 -48.5t2 -121t-4 -135.5q-1 -12 -11.5 -21.5t-27.5 -9.5h-107q-38 0 -65 1q-20 2 -21 21l-3 82q0 12 -4.5 13.5t-9.5 -6.5q-26 -39 -77 -104q-11 -14 -27 -14t-25 14q-21 30 -59 105
q-6 11 -10 5.5t-4 -13.5l-3 -82q0 -19 -26 -21q-13 -1 -28.5 -1t-34.5 1q-28 1 -32 30q-4 51 -4 136.5t2.5 133t37.5 47.5h170q13 0 28 -16t56 -70zM396 385q-1 -11 -9.5 -20t-23.5 -10q-52 -2 -85 -2t-91 2q-18 1 -28.5 10t-10.5 19q-2 94 -2 128t0.5 54.5t-14.5 20.5h-46
q-24 0 -25 24q-1 17 -1 35t1 37q2 19 29 19.5t184 0.5t181 -0.5t26 -19.5q1 -12 1 -29.5t-0.5 -40.5t-22.5 -23h-45q-18 0 -18 -16q1 -39 1 -99.5t-1 -89.5z" />
    <glyph glyph-name="estimated" unicode="&#x212e;" horiz-adv-x="1007" 
d="M917 341h-670q-6 0 -6 -5v-202q0 -16 10 -23q108 -111 253 -111q78 0 147 33t119 90h61q-57 -67 -143.5 -105.5t-184.5 -38.5q-172 0 -292.5 108.5t-120.5 263t120.5 263.5t292 109t293 -109t121.5 -263v-10zM765 367v205q0 12 -10 24q-108 106 -251.5 106t-251.5 -110
q-11 -10 -11 -25v-200q0 -6 6 -6h513q5 0 5 6z" />
    <glyph glyph-name="partialdiff" unicode="&#x2202;" horiz-adv-x="873" 
d="M406 508q74 0 121 -30q1 9 1 25q0 52 -19.5 77t-62.5 25t-80.5 -13.5t-63.5 -27t-41 -13.5q-37 0 -37 71q0 42 92.5 72.5t203.5 30.5q303 0 303 -286q0 -83 -29.5 -163.5t-84 -148t-143.5 -108.5t-198 -41q-160 1 -234 65t-74 165q0 131 98.5 215.5t247.5 84.5zM359 191
q0 -17 9 -26.5t24.5 -9.5t36.5 27q43 56 71 149q-11 23 -46 23t-65 -51.5t-30 -111.5z" />
    <glyph glyph-name="product" unicode="&#x220f;" horiz-adv-x="1092" 
d="M1024 635q8 -88 8 -283t-4 -253.5t-18 -80t-56 -21.5h-231q-35 0 -59.5 24t-24.5 62v403q0 36 -31 36h-111q-31 0 -31 -36v-403q0 -38 -24.5 -62t-59.5 -24h-244q-42 0 -56 21.5t-18 80t-4 253.5t8 283q3 24 20.5 42.5t46.5 18.5q276 3 397.5 3t424.5 -3q29 0 46.5 -18.5
t20.5 -42.5z" />
    <glyph glyph-name="summation" unicode="&#x2211;" horiz-adv-x="804" 
d="M61 552l2 86q0 33 18.5 46t52.5 16q100 5 256 5t298 -5q19 -1 34.5 -14.5t16.5 -36.5l2 -77q0 -24 -7.5 -36.5t-29.5 -12.5l-181 1q-19 0 -21 -10.5t9 -21.5l33 -41q16 -18 16 -33.5t-22 -33.5l-88 -74q-10 -8 -6 -13t10 -5l262 -4q15 -1 24.5 -13t10.5 -29l3 -78
q0 -12 -1.5 -38.5t-2.5 -57t-16 -48t-34 -20.5q-74 -7 -282.5 -7t-284.5 4q-34 3 -52.5 19.5t-18.5 59.5v20q0 24 20 50l164 146q9 8 9 17.5t-12 21.5l-168 150q-14 12 -14 67z" />
    <glyph glyph-name="minus" unicode="&#x2212;" horiz-adv-x="751" 
d="M696 364v-21q0 -46 -18.5 -60.5t-54.5 -14.5h-497q-35 0 -52.5 14t-18.5 60v22q0 46 18.5 60.5t54.5 14.5h497q35 0 52.5 -14t18.5 -61z" />
    <glyph glyph-name="radical" unicode="&#x221a;" horiz-adv-x="751" 
d="M64 356q-13 22 -13 43q0 35 46 56l121 57q26 11 39 11q38 0 55 -44l75 -180l91 526q5 29 18.5 44.5t41.5 15.5q5 0 36 -4q58 -7 58 -59q0 -8 -139 -790q-4 -25 -30.5 -42t-54.5 -17q-55 0 -79 50l-145 315l-27 -13q-24 -12 -41 -12q-32 0 -52 43z" />
    <glyph glyph-name="infinity" unicode="&#x221e;" horiz-adv-x="1080" 
d="M645 303q12 -23 38 -37.5t49 -14.5t38 13t15 39t-15 39t-38 13t-49 -14.5t-38 -37.5zM435 300q-12 23 -38 37.5t-49 14.5t-38 -13t-15 -39t15 -39t38 -13t49 14.5t38 37.5zM539 161q-101 -95 -212 -95t-179 69.5t-68 165.5t68 165.5t181.5 69.5t210.5 -93q97 93 210.5 93
t181.5 -69.5t68 -165.5t-68 -165.5t-178 -69.5t-215 95z" />
    <glyph glyph-name="integral" unicode="&#x222b;" horiz-adv-x="758" 
d="M536 489v-450q0 -150 -128 -198q-71 -26 -162 -26t-161 27q-35 12 -35 80.5t32 68.5q9 0 34.5 -11.5t42.5 -11.5q33 0 48 28.5t15 69.5v450q0 150 128 198q71 26 162 26t161 -27q35 -12 35 -80.5t-32 -68.5q-9 0 -34.5 11.5t-42.5 11.5q-33 0 -48 -28.5t-15 -69.5z" />
    <glyph glyph-name="approxequal" unicode="&#x2248;" horiz-adv-x="825" 
d="M665.5 416.5q-54.5 -30.5 -112.5 -30.5t-135 30.5t-119.5 30.5t-89.5 -39q-12 -10 -24 -10t-24 8l-59 40q-21 13 -21 34q0 9 4 19q20 59 74.5 89.5t112.5 30.5t135 -30.5t119.5 -30.5t89.5 39q12 10 24 10t24 -8l59 -40q21 -13 21 -34q0 -9 -4 -19q-20 -59 -74.5 -89.5z
M665.5 123.5q-54.5 -30.5 -112.5 -30.5t-135 30.5t-119.5 30.5t-89.5 -39q-12 -10 -24 -10t-24 8l-59 40q-21 13 -21 34q0 9 4 19q20 59 74.5 89.5t112.5 30.5t135 -30.5t119.5 -30.5t89.5 39q12 10 24 10t24 -8l59 -40q21 -13 21 -34q0 -9 -4 -19q-20 -59 -74.5 -89.5z" />
    <glyph glyph-name="notequal" unicode="&#x2260;" horiz-adv-x="751" 
d="M582 701q15 0 22 -11t7 -23.5t-40 -79.5h54q35 0 52.5 -14t18.5 -61v-21q0 -46 -18.5 -60.5t-54.5 -14.5h-151l-71 -122h224q35 0 52.5 -14t18.5 -61v-21q0 -46 -18.5 -60.5t-54.5 -14.5h-324q-36 -62 -48 -80q-25 -37 -60 -37h-49q-15 0 -22 11t-7 19.5t5 19t20.5 38.5
t15.5 29h-28q-35 0 -52.5 14t-18.5 60v22q0 46 18.5 60.5t54.5 14.5h126l72 122h-200q-35 0 -52.5 14t-18.5 60v22q0 46 18.5 60.5t54.5 14.5h298q29 50 50.5 82t56.5 32h49z" />
    <glyph glyph-name="lessequal" unicode="&#x2264;" horiz-adv-x="702" 
d="M325 466l259 -112q38 -17 38 -61v-27q0 -29 -20 -46.5t-40 -17.5t-30 5l-427 195q-25 12 -25 52v24q0 41 25 53l427 194q10 5 30 5t40 -17.5t20 -46.5v-27q0 -44 -38 -61zM622 78v-4q0 -46 -18.5 -60.5t-54.5 -14.5h-397q-35 0 -52.5 14t-18.5 60v5q0 46 18.5 60.5
t54.5 14.5h397q35 0 52.5 -14t18.5 -61z" />
    <glyph glyph-name="greaterequal" unicode="&#x2265;" horiz-adv-x="702" 
d="M118 354l259 112l-259 112q-38 17 -38 61v27q0 29 20 46.5t40 17.5t30 -5l427 -194q25 -12 25 -53v-24q0 -40 -25 -52l-427 -195q-10 -5 -30 -5t-40 17.5t-20 46.5v27q0 44 38 61zM80 74v4q1 47 18.5 61t52.5 14h397q36 0 54.5 -14.5t18.5 -60.5v-5q-1 -46 -18.5 -60
t-52.5 -14h-397q-36 0 -54.5 14.5t-18.5 60.5z" />
    <glyph glyph-name="lozenge" unicode="&#x25ca;" horiz-adv-x="686" 
d="M365 -6h-44q-35 0 -44 16l-198 312q-9 15 -9 29t9 29l198 312q9 16 44 16h44q35 0 44 -16l198 -312q9 -15 9 -29t-9 -29l-198 -312q-9 -16 -44 -16zM466 351l-123 206l-123 -206l123 -206z" />
    <glyph glyph-name="s_t" unicode="&#xfb06;" horiz-adv-x="1311" 
d="M280 131q0 28 -23.5 44t-57 24.5t-67.5 20t-57.5 40t-23.5 75.5q0 186 289 186q63 0 91 -4q-15 29 -15 61q0 71 54 120q96 88 265 88q130 0 227 -52q49 -25 77.5 -69t27.5 -99l-1 -42q0 -21 18 -21h107q26 0 37.5 -11t11.5 -50.5t-12 -50.5t-36 -11h-104q-14 0 -18 -7
t-4 -20v-120q2 -34 25.5 -57t66.5 -23q21 0 52 11.5t42 11.5q27 0 27 -80q0 -58 -31 -70q-32 -11 -90 -18t-116 -7t-110.5 9.5t-95.5 33.5q-84 49 -84 187v133q0 8 -6 12t-16 4t-18.5 1.5t-16.5 6.5q-15 11 -15 48.5t7.5 49.5t24.5 14q56 6 88 39t32 77.5t-36 69.5t-91 25
q-84 0 -143 -38t-59 -99q0 -26 17 -59t47 -54q16 -12 16 -44t-11.5 -46.5t-23 -14.5t-50 22.5t-79.5 23.5q-33 0 -33 -33q0 -22 23 -35t56 -22.5t66 -23t56 -45t23 -79.5q0 -186 -289 -186q-141 0 -230 41q-27 11 -39 22.5t-12 42t12.5 43.5t21 13t57.5 -22t99 -22t50 35z
" />
    <glyph glyph-name="commaaccent" horiz-adv-x="400" 
d="M81.5 -199q-11.5 16 -11.5 28t11 16q65 22 74 73q4 22 8 28q13 19 57 19h49q43 0 43 -38q0 -28 -24.5 -61t-82.5 -57t-102 -24q-10 0 -21.5 16z" />
    <glyph glyph-name="foundryicon" horiz-adv-x="1299" 
d="M194 137l-154 150l154 148l42 -34l-93 -88h261q-7 29 -7 65q0 86 45 138.5t118 52.5q52 0 82.5 -17t57.5 -54q48 71 142 71q75 0 118 -52.5t43 -138.5q0 -28 -7 -65h211v122h52v-298h-52v121h-227q-42 -107 -137.5 -184.5t-145.5 -77.5t-143.5 77t-134.5 185h-275l92 -89
zM700 48q28 4 69 32t81.5 70t69 101.5t28.5 123t-31.5 104t-88.5 40.5q-87 0 -120 -89h-17q-32 89 -119 89q-57 0 -88.5 -41t-31.5 -112q0 -25 5 -53h208v-55h-189q34 -80 104 -141.5t120 -68.5z" />
    <glyph glyph-name="CR" horiz-adv-x="0" 
 />
  </font>
</defs>
</svg>
